<svg width="375" height="107" viewBox="0 0 375 107" fill="none" xmlns="http://www.w3.org/2000/svg">
<path fill-rule="evenodd" clip-rule="evenodd" d="M158.39 17.3301C153.925 24.3965 160.55 32 168.909 32H207.091C215.45 32 222.075 24.3965 217.61 17.3301C211.41 7.5171 200.466 1 188 1C175.534 1 164.59 7.5171 158.39 17.3301ZM155.728 20.0282C152.558 26.422 146.819 32 139.682 32H6C2.68629 32 0 34.6863 0 38V81C0 95.3594 11.6406 107 26 107H349C363.359 107 375 95.3594 375 81V38C375 34.6863 372.314 32 369 32H236.318C229.181 32 223.442 26.422 220.272 20.0282C214.387 8.15917 202.146 0 188 0C173.854 0 161.613 8.15917 155.728 20.0282Z" fill="white"/>
</svg>
