<svg width="24" height="24" viewBox="0 0 24 24" fill="none" xmlns="http://www.w3.org/2000/svg">
<path d="M17.5319 3.80122L5.47875 2.32136C4.90561 2.25285 4.32864 2.41388 3.87381 2.7693C3.41898 3.12471 3.12323 3.64563 3.05114 4.21834L1.57128 16.2711C1.50179 16.8444 1.66245 17.4219 2.01804 17.8769C2.37363 18.332 2.89514 18.6275 3.46825 18.6987L15.5206 20.1785C16.0935 20.246 16.6699 20.0845 17.1244 19.7293C17.5789 19.3741 17.8749 18.8538 17.9479 18.2816L19.4281 6.2292C19.4977 5.65597 19.3372 5.07816 18.9818 4.62308C18.6263 4.16801 18.1049 3.87246 17.5319 3.80122Z" fill="#FFCA28"/>
<path d="M22.5 7.5V16.5C22.4985 16.6988 22.4207 16.8895 22.2825 17.0325L17.7825 21.5325C17.6395 21.6707 17.4488 21.7485 17.25 21.75H8.25C7.6538 21.7483 7.08251 21.5107 6.66093 21.0891C6.23935 20.6675 6.00174 20.0962 6 19.5V7.5C6.00174 6.9038 6.23935 6.33251 6.66093 5.91093C7.08251 5.48935 7.6538 5.25174 8.25 5.25H20.25C20.8462 5.25174 21.4175 5.48935 21.8391 5.91093C22.2607 6.33251 22.4983 6.9038 22.5 7.5Z" fill="#FAFAFA"/>
<path d="M14.25 18.75C17.1495 18.75 19.5 16.3995 19.5 13.5C19.5 10.6005 17.1495 8.25 14.25 8.25C11.3505 8.25 9 10.6005 9 13.5C9 16.3995 11.3505 18.75 14.25 18.75Z" fill="#7CB342"/>
<path d="M16.5 12.75H15V11.25C15 11.0511 14.921 10.8603 14.7803 10.7197C14.6397 10.579 14.4489 10.5 14.25 10.5C14.0511 10.5 13.8603 10.579 13.7197 10.7197C13.579 10.8603 13.5 11.0511 13.5 11.25V12.75H12C11.8011 12.75 11.6103 12.829 11.4697 12.9697C11.329 13.1103 11.25 13.3011 11.25 13.5C11.25 13.6989 11.329 13.8897 11.4697 14.0303C11.6103 14.171 11.8011 14.25 12 14.25H13.5V15.75C13.5 15.9489 13.579 16.1397 13.7197 16.2803C13.8603 16.421 14.0511 16.5 14.25 16.5C14.4489 16.5 14.6397 16.421 14.7803 16.2803C14.921 16.1397 15 15.9489 15 15.75V14.25H16.5C16.6989 14.25 16.8897 14.171 17.0303 14.0303C17.171 13.8897 17.25 13.6989 17.25 13.5C17.25 13.3011 17.171 13.1103 17.0303 12.9697C16.8897 12.829 16.6989 12.75 16.5 12.75Z" fill="#FAFAFA"/>
<path d="M22.5 15V16.5C22.4985 16.6988 22.4207 16.8895 22.2825 17.0325L17.7825 21.5325C17.6395 21.6707 17.4488 21.7485 17.25 21.75H15.75V17.25C15.7517 16.6538 15.9894 16.0825 16.4109 15.6609C16.8325 15.2394 17.4038 15.0017 18 15H22.5Z" fill="#E0E0E0"/>
</svg>
