<svg width="24" height="24" viewBox="0 0 24 24" fill="none" xmlns="http://www.w3.org/2000/svg">
<rect x="0.458333" y="0.458333" width="23.0833" height="23.0833" rx="11.5417" fill="#EFEFEF" fill-opacity="0.52"/>
<rect x="0.458333" y="0.458333" width="23.0833" height="23.0833" rx="11.5417" stroke="#333333" stroke-width="0.916667" stroke-dasharray="1.83 1.83"/>
<g clip-path="url(#clip0_1874_1583)">
<path d="M14.1792 12.0178C13.9871 11.9264 13.791 11.8477 13.5915 11.7818C14.2376 11.2968 14.6564 10.5245 14.6564 9.65625C14.6564 8.1916 13.4648 7 12.0001 7C10.5355 7 9.3439 8.1916 9.3439 9.65625C9.3439 10.5255 9.76358 11.2985 10.4109 11.7834C9.81782 11.9787 9.26128 12.2825 8.77417 12.6832C7.88097 13.4179 7.25993 14.4427 7.0255 15.5688C6.95202 15.9217 7.04005 16.2841 7.26696 16.5631C7.49276 16.8408 7.82759 17 8.18556 17H12.9962C13.212 17 13.3869 16.8251 13.3869 16.6094C13.3869 16.3936 13.212 16.2188 12.9962 16.2188H8.18556C8.0188 16.2188 7.91819 16.1257 7.87307 16.0702C7.79516 15.9744 7.76501 15.8497 7.79034 15.728C8.19571 13.7809 9.91321 12.3585 11.8966 12.3105C11.9309 12.3118 11.9655 12.3125 12.0001 12.3125C12.0352 12.3125 12.07 12.3118 12.1047 12.3105C12.7125 12.3247 13.2971 12.4634 13.8439 12.7234C14.0387 12.8159 14.2717 12.7331 14.3643 12.5382C14.457 12.3434 14.3741 12.1104 14.1792 12.0178ZM12.0954 11.5288C12.0637 11.5283 12.032 11.528 12.0001 11.528C11.9686 11.528 11.9371 11.5283 11.9056 11.5289C10.9155 11.4795 10.1251 10.6584 10.1251 9.65625C10.1251 8.62236 10.9663 7.78125 12.0001 7.78125C13.034 7.78125 13.8751 8.62236 13.8751 9.65625C13.8751 10.6582 13.0852 11.4791 12.0954 11.5288Z" fill="#333333"/>
<path d="M16.6094 14.7539H15.5352V13.6797C15.5352 13.4639 15.3603 13.2891 15.1445 13.2891C14.9288 13.2891 14.7539 13.4639 14.7539 13.6797V14.7539H13.6797C13.4639 14.7539 13.2891 14.9288 13.2891 15.1445C13.2891 15.3603 13.4639 15.5352 13.6797 15.5352H14.7539V16.6094C14.7539 16.8251 14.9288 17 15.1445 17C15.3603 17 15.5352 16.8251 15.5352 16.6094V15.5352H16.6094C16.8251 15.5352 17 15.3603 17 15.1445C17 14.9288 16.8251 14.7539 16.6094 14.7539Z" fill="#333333"/>
</g>
<defs>
<clipPath id="clip0_1874_1583">
<rect width="10" height="10" fill="white" transform="translate(7 7)"/>
</clipPath>
</defs>
</svg>
