<svg width="32" height="32" viewBox="0 0 32 32" fill="none" xmlns="http://www.w3.org/2000/svg">
<g clip-path="url(#clip0_710_1545)">
<g clip-path="url(#clip1_710_1545)">
<path d="M24.1798 29.7313C22.4954 31.3641 20.6564 31.1062 18.8861 30.3328C17.0126 29.5422 15.2939 29.5078 13.3173 30.3328C10.8423 31.3984 9.53607 31.0891 8.05794 29.7313C-0.329558 21.0859 0.907942 7.92031 10.4298 7.43906C12.7501 7.55937 14.3658 8.71094 15.7236 8.81406C17.7517 8.40156 19.6939 7.21562 21.8595 7.37031C24.4548 7.57656 26.4142 8.60781 27.7033 10.4641C22.3408 13.6781 23.6126 20.7422 28.5283 22.7188C27.5486 25.2969 26.2767 27.8578 24.1626 29.7484L24.1798 29.7313ZM15.5517 7.33594C15.2939 3.50312 18.4048 0.340625 21.9798 0.03125C22.4783 4.46562 17.9579 7.76562 15.5517 7.33594Z" fill="black"/>
</g>
</g>
<defs>
<clipPath id="clip0_710_1545">
<rect width="32" height="32" fill="white"/>
</clipPath>
<clipPath id="clip1_710_1545">
<rect width="33" height="33" fill="white" transform="translate(-1 -1)"/>
</clipPath>
</defs>
</svg>
