<svg width="21" height="30" viewBox="0 0 21 30" fill="none" xmlns="http://www.w3.org/2000/svg">
<line x1="0.25" y1="1.09279e-08" x2="0.249999" y2="28" stroke="#808080" stroke-width="0.5" stroke-dasharray="1 1"/>
<path d="M20.1768 28.1768C20.2744 28.0791 20.2744 27.9209 20.1768 27.8232L18.5858 26.2322C18.4882 26.1346 18.3299 26.1346 18.2322 26.2322C18.1346 26.3299 18.1346 26.4882 18.2322 26.5858L19.6464 28L18.2322 29.4142C18.1346 29.5118 18.1346 29.6701 18.2322 29.7678C18.3299 29.8654 18.4882 29.8654 18.5858 29.7678L20.1768 28.1768ZM0 28.25H0.5V27.75H0V28.25ZM1.5 28.25H2.5V27.75H1.5V28.25ZM3.5 28.25H4.5V27.75H3.5V28.25ZM5.5 28.25H6.5V27.75H5.5V28.25ZM7.5 28.25H8.5V27.75H7.5V28.25ZM9.5 28.25H10.5V27.75H9.5V28.25ZM11.5 28.25H12.5V27.75H11.5V28.25ZM13.5 28.25H14.5V27.75H13.5V28.25ZM15.5 28.25H16.5V27.75H15.5V28.25ZM17.5 28.25H18.5V27.75H17.5V28.25ZM19.5 28.25H20V27.75H19.5V28.25ZM20.1768 28.1768C20.2744 28.0791 20.2744 27.9209 20.1768 27.8232L18.5858 26.2322C18.4882 26.1346 18.3299 26.1346 18.2322 26.2322C18.1346 26.3299 18.1346 26.4882 18.2322 26.5858L19.6464 28L18.2322 29.4142C18.1346 29.5118 18.1346 29.6701 18.2322 29.7678C18.3299 29.8654 18.4882 29.8654 18.5858 29.7678L20.1768 28.1768ZM0 28.25H0.5V27.75H0V28.25ZM1.5 28.25H2.5V27.75H1.5V28.25ZM3.5 28.25H4.5V27.75H3.5V28.25ZM5.5 28.25H6.5V27.75H5.5V28.25ZM7.5 28.25H8.5V27.75H7.5V28.25ZM9.5 28.25H10.5V27.75H9.5V28.25ZM11.5 28.25H12.5V27.75H11.5V28.25ZM13.5 28.25H14.5V27.75H13.5V28.25ZM15.5 28.25H16.5V27.75H15.5V28.25ZM17.5 28.25H18.5V27.75H17.5V28.25ZM19.5 28.25H20V27.75H19.5V28.25Z" fill="#808080"/>
</svg>
