<svg width="10" height="9" viewBox="0 0 10 9" fill="none" xmlns="http://www.w3.org/2000/svg">
<g clip-path="url(#clip0_346_1066)">
<path d="M7.06129 3.83074C7.28359 3.47905 7.40582 3.07553 7.41533 2.66201C7.42484 2.24848 7.32128 1.83999 7.11538 1.47884C6.90948 1.1177 6.60873 0.817043 6.24428 0.608021C5.87984 0.398999 5.46495 0.289216 5.04262 0.290044H2.6693C2.48946 0.290044 2.31699 0.360012 2.18982 0.484557C2.06265 0.609102 1.99121 0.778021 1.99121 0.954153V7.59525C1.99121 7.77138 2.06265 7.9403 2.18982 8.06485C2.31699 8.18939 2.48946 8.25936 2.6693 8.25936H6.05975C6.6 8.25992 7.12424 8.07979 7.54571 7.74879C7.96718 7.41779 8.26062 6.95577 8.37744 6.43918C8.49427 5.9226 8.42748 5.38243 8.18814 4.90808C7.9488 4.43374 7.55125 4.05366 7.06129 3.83074ZM3.34739 1.61826H5.04262C5.31238 1.61826 5.57109 1.72322 5.76184 1.91003C5.95259 2.09685 6.05975 2.35023 6.05975 2.61443C6.05975 2.87863 5.95259 3.132 5.76184 3.31882C5.57109 3.50564 5.31238 3.61059 5.04262 3.61059H3.34739V1.61826ZM6.05975 6.93114H3.34739V4.93881H6.05975C6.32951 4.93881 6.58823 5.04376 6.77898 5.23058C6.96973 5.4174 7.07689 5.67078 7.07689 5.93498C7.07689 6.19917 6.96973 6.45255 6.77898 6.63937C6.58823 6.82619 6.32951 6.93114 6.05975 6.93114Z" fill="#636774"/>
</g>
<defs>
<clipPath id="clip0_346_1066">
<rect width="8.13708" height="7.96931" fill="white" transform="translate(0.973633 0.290039)"/>
</clipPath>
</defs>
</svg>
