<svg width="20" height="20" viewBox="0 0 20 20" fill="none" xmlns="http://www.w3.org/2000/svg">
<g clip-path="url(#clip0_209_2253)">
<path d="M18.125 10C18.125 11.607 17.6485 13.1779 16.7557 14.514C15.8629 15.8502 14.594 16.8916 13.1093 17.5065C11.6247 18.1215 9.99099 18.2824 8.4149 17.9689C6.8388 17.6554 5.39106 16.8815 4.25476 15.7452C3.11846 14.6089 2.34463 13.1612 2.03112 11.5851C1.71762 10.009 1.87852 8.37535 2.49348 6.8907C3.10844 5.40605 4.14985 4.1371 5.486 3.24431C6.82215 2.35152 8.39303 1.875 10 1.875C12.1549 1.875 14.2215 2.73102 15.7452 4.25476C17.269 5.77849 18.125 7.84512 18.125 10Z" fill="#FBFBFB"/>
<path d="M18.125 10.0001C18.1244 8.27985 17.5779 6.6042 16.5642 5.21443C15.5505 3.82466 14.1218 2.7925 12.484 2.26659C10.8461 1.74068 9.08363 1.74817 7.45031 2.28797C5.817 2.82777 4.39715 3.87203 3.39526 5.27036C4.95999 4.14912 6.87206 3.61999 8.79061 3.77732C10.7092 3.93464 12.5095 4.76818 13.8707 6.12935C15.2318 7.49052 16.0654 9.29085 16.2227 11.2094C16.38 13.1279 15.8509 15.04 14.7296 16.6047C15.7805 15.8536 16.6368 14.8625 17.2274 13.7137C17.8179 12.5649 18.1257 11.2917 18.125 10.0001Z" fill="#E3EFFA"/>
<path d="M10 0.3125C11.916 0.3125 13.789 0.880662 15.3821 1.94514C16.9752 3.00961 18.2169 4.52259 18.9501 6.29275C19.6833 8.06291 19.8751 10.0107 19.5014 11.8899C19.1276 13.7691 18.2049 15.4953 16.8501 16.8501C15.4953 18.2049 13.7691 19.1276 11.8899 19.5014C10.0107 19.8751 8.06291 19.6833 6.29275 18.9501C4.52259 18.2169 3.00961 16.9752 1.94514 15.3821C0.880662 13.789 0.3125 11.916 0.3125 10C0.3125 7.43071 1.33314 4.96666 3.1499 3.1499C4.96666 1.33314 7.43071 0.3125 10 0.3125ZM10 18.125C11.607 18.125 13.1779 17.6485 14.514 16.7557C15.8502 15.8629 16.8916 14.594 17.5065 13.1093C18.1215 11.6247 18.2824 9.99099 17.9689 8.41489C17.6554 6.8388 16.8815 5.39106 15.7452 4.25476C14.6089 3.11846 13.1612 2.34462 11.5851 2.03112C10.009 1.71761 8.37535 1.87852 6.8907 2.49348C5.40605 3.10844 4.1371 4.14984 3.24431 5.48599C2.35152 6.82214 1.875 8.39303 1.875 10C1.875 12.1549 2.73102 14.2215 4.25476 15.7452C5.77849 17.269 7.84512 18.125 10 18.125Z" fill="#FCC369"/>
<path d="M10.6249 5.37516V9.83766C10.626 9.98288 10.575 10.1237 10.4811 10.2345L8.51864 12.622C8.45998 12.6884 8.38655 12.74 8.30427 12.7727C8.22199 12.8054 8.13318 12.8184 8.04498 12.8105C7.95679 12.8025 7.87169 12.774 7.79655 12.7272C7.72141 12.6803 7.65833 12.6165 7.61239 12.5408C7.52884 12.4035 7.49276 12.2426 7.5097 12.0827C7.52664 11.9229 7.59567 11.7731 7.70614 11.6564L9.29989 9.77516C9.34908 9.71901 9.37578 9.64667 9.37489 9.57203V5.37516C9.36663 5.2881 9.37664 5.20028 9.40429 5.11731C9.43193 5.03435 9.47661 4.95807 9.53545 4.89338C9.59429 4.82868 9.666 4.777 9.74598 4.74163C9.82596 4.70626 9.91244 4.68799 9.99989 4.68799C10.0873 4.68799 10.1738 4.70626 10.2538 4.74163C10.3338 4.777 10.4055 4.82868 10.4643 4.89338C10.5232 4.95807 10.5679 5.03435 10.5955 5.11731C10.6232 5.20028 10.6332 5.2881 10.6249 5.37516Z" fill="#6D729B"/>
<path d="M7.61239 12.5406C7.52884 12.4033 7.49276 12.2424 7.5097 12.0826C7.52664 11.9228 7.59567 11.773 7.70614 11.6562L9.29989 9.775C9.34908 9.71885 9.37578 9.64651 9.37489 9.57187V5.375C9.37488 5.24718 9.40828 5.12157 9.47177 5.01063C9.43983 5.0044 9.40743 5.00084 9.37489 5C9.20098 5.00866 9.03758 5.08586 8.92045 5.21471C8.80332 5.34355 8.74199 5.51355 8.74989 5.6875V9.88437C8.75078 9.95901 8.72408 10.0313 8.67489 10.0875L7.08114 11.9688C6.97067 12.0855 6.90164 12.2353 6.8847 12.3951C6.86776 12.5549 6.90384 12.7158 6.98739 12.8531C7.03333 12.9288 7.09641 12.9927 7.17155 13.0395C7.24669 13.0864 7.33179 13.1149 7.41998 13.1228C7.50818 13.1307 7.59699 13.1178 7.67927 13.085C7.76155 13.0523 7.83498 13.0007 7.89364 12.9344L8.00302 12.8013C7.92346 12.7871 7.84768 12.7566 7.78046 12.7118C7.71323 12.6669 7.65601 12.6087 7.61239 12.5406Z" fill="#E3EFFA"/>
<path d="M10 1.25C8.26942 1.25 6.57769 1.76318 5.13876 2.72464C3.69983 3.6861 2.57832 5.05267 1.91606 6.65152C1.25379 8.25037 1.08051 10.0097 1.41813 11.707C1.75575 13.4044 2.58911 14.9635 3.81282 16.1872C5.03653 17.4109 6.59563 18.2442 8.29296 18.5819C9.9903 18.9195 11.7496 18.7462 13.3485 18.0839C14.9473 17.4217 16.3139 16.3002 17.2754 14.8612C18.2368 13.4223 18.75 11.7306 18.75 10C18.75 7.67936 17.8281 5.45376 16.1872 3.81282C14.5462 2.17187 12.3206 1.25 10 1.25ZM10 18.125C8.39303 18.125 6.82214 17.6485 5.486 16.7557C4.14985 15.8629 3.10844 14.594 2.49348 13.1093C1.87852 11.6247 1.71762 9.99099 2.03112 8.41489C2.34463 6.8388 3.11846 5.39106 4.25476 4.25476C5.39106 3.11846 6.8388 2.34462 8.4149 2.03112C9.99099 1.71761 11.6247 1.87852 13.1093 2.49348C14.594 3.10844 15.8629 4.14984 16.7557 5.48599C17.6485 6.82214 18.125 8.39303 18.125 10C18.125 12.1549 17.269 14.2215 15.7452 15.7452C14.2215 17.269 12.1549 18.125 10 18.125Z" fill="#ED9B52"/>
<path d="M10.3125 3.4375V1.88281C10.2088 1.87906 10.1047 1.875 10 1.875C9.89531 1.875 9.79125 1.87906 9.6875 1.88281V3.4375H10.3125Z" fill="#6D729B"/>
<path d="M9.6875 16.5625V18.1172C9.79125 18.1209 9.89531 18.125 10 18.125C10.1047 18.125 10.2088 18.1209 10.3125 18.1172V16.5625H9.6875Z" fill="#6D729B"/>
<path d="M18.1172 9.6875H16.5625V10.3125H18.1172C18.1209 10.2088 18.125 10.1047 18.125 10C18.125 9.89531 18.1209 9.79125 18.1172 9.6875Z" fill="#6D729B"/>
<path d="M3.4375 9.6875H1.88281C1.87906 9.79125 1.875 9.89531 1.875 10C1.875 10.1047 1.87906 10.2088 1.88281 10.3125H3.4375V9.6875Z" fill="#6D729B"/>
</g>
<defs>
<clipPath id="clip0_209_2253">
<rect width="20" height="20" fill="white"/>
</clipPath>
</defs>
</svg>
