<svg width="16" height="16" viewBox="0 0 16 16" fill="none" xmlns="http://www.w3.org/2000/svg">
<path d="M7.99947 10.6666C7.91174 10.6671 7.82476 10.6503 7.74354 10.6171C7.66231 10.584 7.58843 10.5351 7.52614 10.4733L3.52614 6.47329C3.4006 6.34776 3.33008 6.1775 3.33008 5.99996C3.33008 5.82243 3.4006 5.65216 3.52614 5.52663C3.65168 5.40109 3.82194 5.33057 3.99947 5.33057C4.17701 5.33057 4.34727 5.40109 4.47281 5.52663L7.99947 9.05996L11.5261 5.53329C11.6537 5.42408 11.8177 5.36701 11.9855 5.37349C12.1533 5.37997 12.3125 5.44952 12.4312 5.56825C12.5499 5.68698 12.6195 5.84614 12.6259 6.01393C12.6324 6.18171 12.5754 6.34576 12.4661 6.47329L8.46614 10.4733C8.34197 10.5965 8.17437 10.6659 7.99947 10.6666Z" fill="#333333"/>
</svg>
