<svg width="14" height="14" viewBox="0 0 14 14" fill="none" xmlns="http://www.w3.org/2000/svg">
<g clip-path="url(#clip0_3149_2226)">
<path d="M8.43533 1.90144L8.94866 1.38811C9.55533 0.781439 10.6112 0.781439 11.2178 1.38811L11.632 1.80227C11.9353 2.10561 12.1045 2.50811 12.1045 2.93394C12.1045 3.35977 11.9353 3.76811 11.632 4.06561L11.1187 4.57894L8.43533 1.89561V1.90144ZM7.81699 2.51977L2.50283 7.83394C2.33366 8.00311 2.22866 8.22477 2.21116 8.46394L2.05366 10.1731C2.03616 10.3889 2.11199 10.5989 2.26366 10.7564C2.40366 10.8964 2.58449 10.9723 2.77699 10.9723H2.84116L4.55033 10.8148C4.78949 10.7914 5.01116 10.6864 5.18033 10.5173L10.4945 5.2031L7.81116 2.51977H7.81699ZM13.2712 12.8331C13.2712 12.5939 13.0728 12.3956 12.8337 12.3956H1.16699C0.927826 12.3956 0.729492 12.5939 0.729492 12.8331C0.729492 13.0723 0.927826 13.2706 1.16699 13.2706H12.8337C13.0728 13.2706 13.2712 13.0723 13.2712 12.8331Z" fill="#295F98" fill-opacity="0.82"/>
</g>
<defs>
<clipPath id="clip0_3149_2226">
<rect width="14" height="14" fill="white"/>
</clipPath>
</defs>
</svg>
