<svg width="24" height="24" viewBox="0 0 24 24" fill="none" xmlns="http://www.w3.org/2000/svg">
<g clip-path="url(#clip0_1324_6987)">
<path d="M14.6077 13.3716L12.8489 15.1363C12.1357 15.852 10.8807 15.8675 10.1521 15.1363L8.39323 13.3716L2.07617 19.7092C2.31131 19.8179 2.57057 19.8828 2.8462 19.8828H20.1548C20.4304 19.8828 20.6896 19.818 20.9247 19.7092L14.6077 13.3716Z" fill="#295F98" fill-opacity="0.62"/>
<path d="M20.1547 5.11719H2.84612C2.57049 5.11719 2.31123 5.18207 2.07617 5.29081L8.8264 12.0634C8.82685 12.0639 8.82739 12.064 8.82784 12.0644C8.82829 12.0649 8.82837 12.0655 8.82837 12.0655L11.0232 14.2676C11.2564 14.5007 11.7445 14.5007 11.9777 14.2676L14.1721 12.0658C14.1721 12.0658 14.1726 12.0649 14.1731 12.0644C14.1731 12.0644 14.1741 12.0639 14.1745 12.0634L20.9246 5.29077C20.6895 5.18199 20.4303 5.11719 20.1547 5.11719Z" fill="#295F98" fill-opacity="0.62"/>
<path d="M1.1963 6.15137C1.07465 6.39738 1 6.67046 1 6.96298V18.0372C1 18.3297 1.07457 18.6028 1.19626 18.8488L7.52427 12.5003L1.1963 6.15137Z" fill="#295F98" fill-opacity="0.62"/>
<path d="M21.8045 6.15186L15.4766 12.5009L21.8045 18.8495C21.9261 18.6035 22.0008 18.3304 22.0008 18.0378V6.96355C22.0008 6.67095 21.9261 6.39787 21.8045 6.15186Z" fill="#295F98" fill-opacity="0.62"/>
</g>
<defs>
<clipPath id="clip0_1324_6987">
<rect width="21" height="21" fill="white" transform="translate(1 2)"/>
</clipPath>
</defs>
</svg>
