<svg width="123" height="123" viewBox="0 0 123 123" fill="none" xmlns="http://www.w3.org/2000/svg">
<path d="M80.4775 122.719V122.524H80.6729V122.719H80.4775Z" fill="black"/>
<path fill-rule="evenodd" clip-rule="evenodd" d="M98.2782 76.3852C98.2782 76.8895 98.4785 77.3731 98.8351 77.7297C99.1917 78.0863 99.6754 78.2867 100.18 78.2867C109.019 78.2867 116.185 85.4525 116.185 94.2921C116.185 98.537 114.499 102.608 111.497 105.61C108.496 108.611 104.425 110.298 100.18 110.298H22.8209C13.9813 110.298 6.81543 103.132 6.81543 94.2922C6.81543 90.0472 8.50171 85.9762 11.5033 82.9746C14.5049 79.9729 18.576 78.2867 22.8209 78.2867C22.8209 78.2867 22.8209 78.2867 22.8209 78.2867C23.3252 78.2867 23.8089 78.0863 24.1654 77.7297C24.522 77.3731 24.7224 76.8895 24.7224 76.3852C24.7224 76.3322 24.7224 76.2789 24.7224 76.2254C24.7224 74.672 23.9733 73.214 22.7106 72.3094C22.1364 71.8991 21.5933 71.4397 21.0877 70.9341C18.6615 68.5079 17.2985 65.2173 17.2985 61.7861V61.7861C17.2985 58.3549 18.6615 55.0643 21.0877 52.6381C23.5139 50.2119 26.8046 48.8489 30.2357 48.8489H92.7648C96.196 48.8489 99.4866 50.2119 101.913 52.6381C104.339 55.0643 105.702 58.3549 105.702 61.7861V61.7861C105.702 65.2173 104.339 68.5079 101.913 70.9341C101.39 71.4573 100.826 71.931 100.23 72.3523C99.0062 73.2176 98.2785 74.6233 98.2785 76.1222C98.2782 76.2104 98.2782 76.2983 98.2782 76.3852Z" fill="#E4F0FC"/>
<path fill-rule="evenodd" clip-rule="evenodd" d="M107.391 27.1362C109.724 27.1362 111.96 28.0627 113.61 29.7118C115.259 31.361 116.185 33.5977 116.185 35.93C116.185 36.1172 116.185 36.3046 116.185 36.4918C116.185 38.824 115.259 41.0608 113.61 42.7099C111.96 44.359 109.724 45.2855 107.391 45.2855C95.5945 45.2855 74.7665 45.2855 62.9695 45.2855C60.6373 45.2855 58.4005 44.359 56.7514 42.7099C55.1022 41.0608 54.1758 38.824 54.1758 36.4918C54.1758 36.3046 54.1758 36.1172 54.1758 35.93C54.1758 33.5977 55.1022 31.361 56.7514 29.7118C58.4005 28.0627 60.6373 27.1362 62.9695 27.1362C74.7665 27.1362 95.5945 27.1362 107.391 27.1362Z" fill="#E4F0FC"/>
<path fill-rule="evenodd" clip-rule="evenodd" d="M61.5004 109.192C93.716 109.192 119.871 109.687 119.871 110.298C119.871 110.908 93.716 111.403 61.5004 111.403C29.2849 111.403 3.12988 110.908 3.12988 110.298C3.12988 109.687 29.2849 109.192 61.5004 109.192Z" fill="#CEDAE5"/>
<path fill-rule="evenodd" clip-rule="evenodd" d="M102.496 59.0312C103.542 59.0312 104.545 59.4466 105.284 60.186C106.023 60.9253 106.439 61.9281 106.439 62.9737C106.439 77.4342 106.439 91.8946 106.439 106.355C106.439 107.401 106.023 108.403 105.284 109.143C104.545 109.882 103.542 110.298 102.496 110.298C83.1426 110.298 63.7889 110.298 44.4351 110.298C42.5566 110.298 40.9389 108.972 40.5696 107.13C38.5424 97.0196 36.5153 86.909 34.4881 76.7984C34.2558 75.64 34.5553 74.4385 35.3042 73.5247C36.053 72.6108 37.1722 72.0809 38.3536 72.0809C48.1679 72.0809 57.9822 72.0809 67.7965 72.0809C69.1598 72.0809 70.4263 71.3766 71.1456 70.2186C73.0919 67.0868 75.0509 63.9676 77.022 60.8608C77.7453 59.7215 79.0009 59.0313 80.3504 59.0313C87.7324 59.0313 95.1144 59.0312 102.496 59.0312Z" fill="#E4A754"/>
<path fill-rule="evenodd" clip-rule="evenodd" d="M104.005 45.7013L98.5053 107.57L43.9043 102.717L50.6313 27.0396L91.424 30.6656L104.005 45.7013Z" fill="#BFD6E9"/>
<path fill-rule="evenodd" clip-rule="evenodd" d="M104.684 44.1939C104.548 44.0314 104.569 43.7892 104.732 43.6532C104.894 43.5173 105.136 43.5388 105.272 43.7013L105.823 44.3595C105.888 44.4376 105.92 44.5384 105.911 44.6398L105.842 45.4137C105.824 45.6247 105.637 45.7807 105.426 45.762C105.215 45.7432 105.059 45.5567 105.078 45.3457L105.132 44.7302L104.684 44.1939ZM104.94 46.8935C104.959 46.6825 105.145 46.5264 105.356 46.5452C105.567 46.5639 105.723 46.7505 105.705 46.9615L105.567 48.5092C105.548 48.7202 105.362 48.8763 105.151 48.8575C104.94 48.8388 104.784 48.6523 104.803 48.4413L104.94 46.8935ZM104.665 49.989C104.684 49.778 104.87 49.6219 105.081 49.6407C105.292 49.6594 105.448 49.846 105.43 50.057L105.292 51.6047C105.273 51.8157 105.087 51.9717 104.876 51.953C104.665 51.9342 104.509 51.7477 104.527 51.5367L104.665 49.989ZM104.39 53.0845C104.409 52.8735 104.595 52.7175 104.806 52.7362C105.017 52.755 105.173 52.9415 105.154 53.1525L105.017 54.7002C104.998 54.9112 104.812 55.0673 104.601 55.0486C104.39 55.0298 104.233 54.8433 104.252 54.6323L104.39 53.0845ZM104.115 56.1801C104.133 55.9691 104.32 55.813 104.531 55.8318C104.742 55.8505 104.898 56.0371 104.879 56.2481L104.742 57.7959C104.723 58.0069 104.536 58.1629 104.325 58.1442C104.114 58.1254 103.958 57.9389 103.977 57.7279L104.115 56.1801ZM103.839 59.2755C103.858 59.0645 104.045 58.9085 104.256 58.9272C104.467 58.946 104.623 59.1325 104.604 59.3435L104.466 60.8913C104.448 61.1023 104.261 61.2584 104.05 61.2396C103.839 61.2208 103.683 61.0343 103.702 60.8233L103.839 59.2755ZM103.564 62.371C103.583 62.16 103.77 62.004 103.981 62.0227C104.192 62.0415 104.348 62.228 104.329 62.439L104.191 63.9867C104.173 64.1977 103.986 64.3538 103.775 64.335C103.564 64.3163 103.408 64.1297 103.427 63.9187L103.564 62.371ZM103.289 65.4666C103.308 65.2556 103.494 65.0995 103.705 65.1182C103.916 65.137 104.072 65.3235 104.054 65.5345L103.916 67.0823C103.897 67.2933 103.711 67.4493 103.5 67.4306C103.289 67.4118 103.133 67.2253 103.152 67.0143L103.289 65.4666ZM103.014 68.5621C103.033 68.3511 103.219 68.195 103.43 68.2138C103.641 68.2325 103.797 68.419 103.779 68.63L103.641 70.1778C103.622 70.3888 103.436 70.5449 103.225 70.5261C103.014 70.5074 102.858 70.3208 102.876 70.1098L103.014 68.5621ZM102.739 71.6577C102.758 71.4467 102.944 71.2906 103.155 71.3094C103.366 71.3281 103.522 71.5147 103.503 71.7257L103.366 73.2734C103.347 73.4844 103.161 73.6404 102.95 73.6217C102.739 73.6029 102.582 73.4164 102.601 73.2054L102.739 71.6577ZM102.464 74.7532C102.482 74.5422 102.669 74.3862 102.88 74.4049C103.091 74.4237 103.247 74.6102 103.228 74.8212L103.091 76.369C103.072 76.5799 102.885 76.736 102.674 76.7173C102.463 76.6985 102.307 76.512 102.326 76.301L102.464 74.7532ZM102.188 77.8488C102.207 77.6378 102.394 77.4817 102.605 77.5005C102.816 77.5192 102.972 77.7057 102.953 77.9167L102.816 79.4645C102.797 79.6755 102.61 79.8316 102.399 79.8128C102.188 79.7941 102.032 79.6075 102.051 79.3965L102.188 77.8488ZM101.913 80.9443C101.932 80.7333 102.119 80.5773 102.33 80.596C102.541 80.6148 102.697 80.8013 102.678 81.0123L102.54 82.5601C102.522 82.7711 102.335 82.9271 102.124 82.9084C101.913 82.8896 101.757 82.7031 101.776 82.4921L101.913 80.9443ZM101.638 84.0398C101.657 83.8288 101.843 83.6728 102.054 83.6915C102.265 83.7103 102.422 83.8968 102.403 84.1078L102.265 85.6556C102.246 85.8666 102.06 86.0226 101.849 86.0039C101.638 85.9851 101.482 85.7986 101.501 85.5876L101.638 84.0398ZM101.363 87.1353C101.382 86.9243 101.568 86.7682 101.779 86.787C101.99 86.8057 102.146 86.9922 102.128 87.2032L101.99 88.751C101.971 88.962 101.785 89.1181 101.574 89.0993C101.363 89.0806 101.207 88.894 101.225 88.683L101.363 87.1353ZM101.088 90.2308C101.107 90.0198 101.293 89.8637 101.504 89.8825C101.715 89.9012 101.871 90.0877 101.852 90.2987L101.715 91.8465C101.696 92.0575 101.51 92.2135 101.299 92.1948C101.088 92.176 100.932 91.9895 100.95 91.7785L101.088 90.2308ZM100.813 93.3263C100.831 93.1153 101.018 92.9593 101.229 92.978C101.44 92.9968 101.596 93.1833 101.577 93.3943L101.44 94.942C101.421 95.153 101.234 95.3091 101.023 95.2903C100.812 95.2716 100.656 95.0851 100.675 94.8741L100.813 93.3263ZM100.538 96.4219C100.556 96.2109 100.743 96.0549 100.954 96.0736C101.165 96.0924 101.321 96.2789 101.302 96.4899L101.165 98.0377C101.146 98.2487 100.959 98.4047 100.748 98.386C100.537 98.3672 100.381 98.1807 100.4 97.9697L100.538 96.4219ZM100.262 99.5174C100.281 99.3064 100.468 99.1503 100.679 99.1691C100.89 99.1878 101.046 99.3743 101.027 99.5853L100.889 101.133C100.871 101.344 100.684 101.5 100.473 101.481C100.262 101.463 100.106 101.276 100.125 101.065L100.262 99.5174ZM99.9872 102.613C100.006 102.402 100.192 102.246 100.403 102.265C100.614 102.283 100.771 102.47 100.752 102.681L100.614 104.229C100.595 104.44 100.409 104.596 100.198 104.577C99.9869 104.558 99.8309 104.372 99.8496 104.161L99.9872 102.613ZM99.712 105.708C99.7308 105.497 99.9173 105.341 100.128 105.36C100.339 105.379 100.495 105.565 100.477 105.776L100.339 107.324C100.32 107.535 100.134 107.691 99.9228 107.672C99.7118 107.654 99.5557 107.467 99.5745 107.256L99.712 105.708ZM99.4369 108.804C99.4556 108.593 99.6421 108.437 99.8531 108.456C100.064 108.474 100.22 108.661 100.201 108.872L100.133 109.646C100.114 109.857 99.9275 110.013 99.7164 109.994L98.9196 109.923C98.7086 109.905 98.5525 109.718 98.5713 109.507C98.5901 109.296 98.7766 109.14 98.9876 109.159L99.4021 109.196L99.4369 108.804ZM97.394 109.017C97.605 109.036 97.761 109.222 97.7423 109.433C97.7235 109.644 97.537 109.8 97.326 109.782L95.7324 109.64C95.5214 109.621 95.3653 109.435 95.3841 109.224C95.4029 109.013 95.5894 108.857 95.8004 108.875L97.394 109.017ZM94.2068 108.734C94.4178 108.753 94.5738 108.939 94.555 109.15C94.5363 109.361 94.3498 109.517 94.1388 109.498L92.5451 109.357C92.3342 109.338 92.1781 109.151 92.1968 108.94C92.2156 108.729 92.4021 108.573 92.6131 108.592L94.2068 108.734ZM91.0195 108.45C91.2305 108.469 91.3866 108.656 91.3678 108.867C91.3491 109.078 91.1626 109.234 90.9516 109.215L89.358 109.073C89.147 109.055 88.9909 108.868 89.0096 108.657C89.0284 108.446 89.2149 108.29 89.4259 108.309L91.0195 108.45ZM87.8324 108.167C88.0434 108.186 88.1994 108.372 88.1807 108.583C88.1619 108.794 87.9754 108.95 87.7644 108.932L86.1708 108.79C85.9598 108.771 85.8037 108.585 85.8225 108.374C85.8412 108.163 86.0278 108.007 86.2387 108.025L87.8324 108.167ZM84.6452 107.884C84.8562 107.903 85.0122 108.089 84.9935 108.3C84.9747 108.511 84.7882 108.667 84.5772 108.648L82.9836 108.507C82.7726 108.488 82.6165 108.301 82.6353 108.09C82.654 107.879 82.8406 107.723 83.0515 107.742L84.6452 107.884ZM81.458 107.601C81.669 107.619 81.825 107.806 81.8063 108.017C81.7875 108.228 81.601 108.384 81.39 108.365L79.7964 108.223C79.5855 108.205 79.4294 108.018 79.4482 107.807C79.4669 107.596 79.6534 107.44 79.8644 107.459L81.458 107.601ZM78.2707 107.317C78.4817 107.336 78.6378 107.522 78.619 107.733C78.6003 107.944 78.4138 108.101 78.2028 108.082L76.6092 107.94C76.3982 107.921 76.2421 107.735 76.2609 107.524C76.2796 107.313 76.4662 107.157 76.6771 107.176L78.2707 107.317ZM75.0836 107.034C75.2946 107.053 75.4507 107.239 75.4319 107.45C75.4131 107.661 75.2266 107.817 75.0156 107.798L73.422 107.657C73.2111 107.638 73.055 107.452 73.0738 107.241C73.0925 107.03 73.279 106.873 73.49 106.892L75.0836 107.034ZM71.8965 106.751C72.1075 106.769 72.2636 106.956 72.2448 107.167C72.226 107.378 72.0395 107.534 71.8285 107.515L70.2349 107.373C70.0239 107.355 69.8678 107.168 69.8866 106.957C69.9054 106.746 70.0919 106.59 70.3029 106.609L71.8965 106.751ZM68.7092 106.467C68.9202 106.486 69.0763 106.673 69.0575 106.884C69.0388 107.095 68.8523 107.251 68.6413 107.232L67.0477 107.09C66.8367 107.071 66.6806 106.885 66.6994 106.674C66.7182 106.463 66.9047 106.307 67.1157 106.326L68.7092 106.467ZM65.522 106.184C65.733 106.203 65.8891 106.389 65.8703 106.6C65.8515 106.811 65.665 106.967 65.454 106.949L63.8604 106.807C63.6494 106.788 63.4933 106.602 63.5121 106.391C63.5309 106.18 63.7174 106.024 63.9284 106.042L65.522 106.184ZM62.3349 105.901C62.5459 105.919 62.7019 106.106 62.6832 106.317C62.6644 106.528 62.4779 106.684 62.2669 106.665L60.6733 106.524C60.4624 106.505 60.3063 106.318 60.325 106.107C60.3438 105.896 60.5303 105.74 60.7413 105.759L62.3349 105.901ZM59.1476 105.617C59.3586 105.636 59.5146 105.823 59.4959 106.034C59.4771 106.245 59.2906 106.401 59.0796 106.382L57.486 106.24C57.275 106.222 57.119 106.035 57.1377 105.824C57.1565 105.613 57.343 105.457 57.554 105.476L59.1476 105.617ZM55.9605 105.334C56.1715 105.353 56.3275 105.539 56.3088 105.75C56.29 105.961 56.1035 106.117 55.8925 106.099L54.2989 105.957C54.0879 105.938 53.9319 105.752 53.9506 105.541C53.9694 105.33 54.1559 105.174 54.3669 105.192L55.9605 105.334ZM52.7732 105.051C52.9842 105.069 53.1403 105.256 53.1215 105.467C53.1028 105.678 52.9163 105.834 52.7053 105.815L51.1117 105.674C50.9007 105.655 50.7446 105.468 50.7634 105.257C50.7821 105.046 50.9686 104.89 51.1796 104.909L52.7732 105.051ZM49.5861 104.767C49.797 104.786 49.9531 104.973 49.9344 105.184C49.9156 105.395 49.7291 105.551 49.5181 105.532L47.9245 105.39C47.7135 105.372 47.5574 105.185 47.5762 104.974C47.595 104.763 47.7815 104.607 47.9925 104.626L49.5861 104.767ZM46.3989 104.484C46.6099 104.503 46.7659 104.689 46.7472 104.9C46.7284 105.111 46.5419 105.267 46.3309 105.249L44.7373 105.107C44.5263 105.088 44.3703 104.902 44.389 104.691C44.4078 104.48 44.5943 104.324 44.8053 104.342L46.3989 104.484ZM43.2117 104.201C43.4226 104.22 43.5787 104.406 43.56 104.617C43.5412 104.828 43.3547 104.984 43.1437 104.965L42.3469 104.895C42.1358 104.876 41.9798 104.689 41.9986 104.478L42.0693 103.683C42.088 103.472 42.2746 103.316 42.4856 103.335C42.6966 103.354 42.8526 103.54 42.8339 103.751L42.7972 104.164L43.2117 104.201ZM42.9752 102.161C42.9565 102.372 42.7699 102.528 42.559 102.509C42.348 102.49 42.1919 102.304 42.2107 102.093L42.352 100.503C42.3708 100.292 42.5573 100.136 42.7683 100.154C42.9793 100.173 43.1353 100.36 43.1166 100.571L42.9752 102.161ZM43.2579 98.9802C43.2392 99.1912 43.0527 99.3472 42.8417 99.3285C42.6307 99.3097 42.4746 99.1232 42.4934 98.9122L42.6347 97.3219C42.6535 97.1109 42.84 96.9549 43.051 96.9736C43.262 96.9924 43.4181 97.1789 43.3993 97.3899L43.2579 98.9802ZM43.5407 95.7996C43.5219 96.0106 43.3354 96.1666 43.1244 96.1479C42.9134 96.1291 42.7573 95.9426 42.7761 95.7316L42.9175 94.1414C42.9362 93.9304 43.1227 93.7743 43.3337 93.7931C43.5447 93.8118 43.7008 93.9984 43.682 94.2093L43.5407 95.7996ZM43.8234 92.619C43.8046 92.83 43.6181 92.9861 43.4071 92.9673C43.1961 92.9486 43.0401 92.762 43.0588 92.551L43.2002 90.9608C43.2189 90.7498 43.4055 90.5938 43.6164 90.6125C43.8274 90.6312 43.9835 90.8178 43.9648 91.0288L43.8234 92.619ZM44.1061 89.4384C44.0874 89.6494 43.9008 89.8055 43.6899 89.7867C43.4789 89.768 43.3228 89.5815 43.3415 89.3705L43.4829 87.7802C43.5017 87.5692 43.6882 87.4131 43.8992 87.4319C44.1102 87.4506 44.2662 87.6372 44.2475 87.8482L44.1061 89.4384ZM44.3888 86.2579C44.3701 86.4689 44.1836 86.625 43.9726 86.6062C43.7616 86.5875 43.6055 86.4009 43.6243 86.1899L43.7656 84.5996C43.7844 84.3886 43.9709 84.2326 44.1819 84.2513C44.3929 84.2701 44.549 84.4566 44.5302 84.6676L44.3888 86.2579ZM44.6716 83.0773C44.6528 83.2883 44.4663 83.4443 44.2553 83.4256C44.0443 83.4068 43.8882 83.2203 43.907 83.0093L44.0483 81.419C44.0671 81.208 44.2536 81.0519 44.4646 81.0707C44.6756 81.0894 44.8317 81.276 44.8129 81.487L44.6716 83.0773ZM44.9543 79.8968C44.9355 80.1078 44.749 80.2639 44.538 80.2451C44.327 80.2263 44.171 80.0398 44.1897 79.8288L44.3311 78.2385C44.3498 78.0275 44.5364 77.8715 44.7473 77.8902C44.9583 77.9089 45.1144 78.0955 45.0956 78.3065L44.9543 79.8968ZM45.237 76.7162C45.2182 76.9272 45.0317 77.0833 44.8207 77.0645C44.6097 77.0458 44.4537 76.8592 44.4724 76.6482L44.6138 75.0579C44.6325 74.8469 44.8191 74.6908 45.0301 74.7096C45.2411 74.7283 45.3971 74.9149 45.3784 75.1258L45.237 76.7162ZM45.5197 73.5356C45.501 73.7466 45.3145 73.9027 45.1035 73.8839C44.8925 73.8651 44.7364 73.6786 44.7552 73.4676L44.8965 71.8773C44.9153 71.6663 45.1018 71.5103 45.3128 71.529C45.5238 71.5478 45.6798 71.7343 45.6611 71.9453L45.5197 73.5356ZM45.8025 70.355C45.7837 70.566 45.5972 70.7221 45.3862 70.7034C45.1752 70.6846 45.0191 70.4981 45.0379 70.2871L45.1792 68.6968C45.198 68.4858 45.3845 68.3298 45.5955 68.3485C45.8065 68.3673 45.9626 68.5538 45.9438 68.7648L45.8025 70.355ZM46.0852 67.1745C46.0664 67.3855 45.8799 67.5415 45.6689 67.5228C45.4579 67.504 45.3018 67.3175 45.3206 67.1065L45.462 65.5162C45.4807 65.3052 45.6672 65.1491 45.8782 65.1679C46.0892 65.1867 46.2453 65.3732 46.2265 65.5842L46.0852 67.1745ZM46.3679 63.9939C46.3491 64.2048 46.1626 64.3609 45.9516 64.3422C45.7406 64.3234 45.5846 64.1369 45.6033 63.9259L45.7447 62.3357C45.7634 62.1247 45.95 61.9686 46.1609 61.9874C46.3719 62.0061 46.528 62.1926 46.5093 62.4036L46.3679 63.9939ZM46.6506 60.8132C46.6319 61.0242 46.4453 61.1803 46.2344 61.1616C46.0234 61.1428 45.8673 60.9563 45.886 60.7453L46.0274 59.155C46.0462 58.944 46.2327 58.7879 46.4437 58.8066C46.6547 58.8254 46.8108 59.0119 46.792 59.2229L46.6506 60.8132ZM46.9333 57.6327C46.9146 57.8437 46.7281 57.9998 46.5171 57.981C46.3061 57.9623 46.15 57.7758 46.1688 57.5648L46.3101 55.9745C46.3289 55.7635 46.5154 55.6074 46.7264 55.6262C46.9374 55.6449 47.0935 55.8314 47.0747 56.0424L46.9333 57.6327ZM47.2161 54.4522C47.1973 54.6632 47.0108 54.8192 46.7998 54.8005C46.5888 54.7817 46.4327 54.5952 46.4515 54.3842L46.5928 52.794C46.6116 52.583 46.7981 52.4269 47.0091 52.4457C47.2201 52.4644 47.3762 52.6509 47.3574 52.8619L47.2161 54.4522ZM47.4988 51.2715C47.48 51.4825 47.2935 51.6386 47.0825 51.6198C46.8715 51.601 46.7155 51.4145 46.7342 51.2035L46.8756 49.6133C46.8943 49.4023 47.0809 49.2462 47.2919 49.2649C47.5029 49.2837 47.6589 49.4702 47.6402 49.6812L47.4988 51.2715ZM47.7815 48.0911C47.7627 48.3021 47.5762 48.4581 47.3652 48.4394C47.1542 48.4206 46.9982 48.2341 47.0169 48.0231L47.1583 46.4328C47.177 46.2218 47.3636 46.0657 47.5746 46.0845C47.7856 46.1033 47.9416 46.2898 47.9229 46.5008L47.7815 48.0911ZM48.0642 44.9104C48.0455 45.1214 47.859 45.2775 47.648 45.2588C47.437 45.24 47.2809 45.0535 47.2997 44.8425L47.441 43.2522C47.4598 43.0412 47.6463 42.8851 47.8573 42.9039C48.0683 42.9226 48.2243 43.1091 48.2056 43.3201L48.0642 44.9104ZM48.347 41.7299C48.3282 41.9409 48.1417 42.0969 47.9307 42.0782C47.7197 42.0594 47.5636 41.8729 47.5824 41.6619L47.7237 40.0717C47.7425 39.8607 47.929 39.7046 48.14 39.7233C48.351 39.7421 48.5071 39.9286 48.4883 40.1396L48.347 41.7299ZM48.6297 38.5493C48.6109 38.7603 48.4244 38.9163 48.2134 38.8976C48.0024 38.8788 47.8463 38.6923 47.8651 38.4813L48.0065 36.891C48.0252 36.6801 48.2117 36.524 48.4227 36.5427C48.6337 36.5615 48.7898 36.748 48.7711 36.959L48.6297 38.5493ZM48.9124 35.3687C48.8937 35.5797 48.7071 35.7358 48.4961 35.717C48.2851 35.6983 48.1291 35.5117 48.1478 35.3008L48.2892 33.7105C48.3079 33.4995 48.4945 33.3434 48.7055 33.3621C48.9164 33.3809 49.0725 33.5674 49.0538 33.7784L48.9124 35.3687ZM49.1951 32.1881C49.1764 32.3991 48.9898 32.5552 48.7789 32.5364C48.5679 32.5177 48.4118 32.3311 48.4305 32.1201L48.5719 30.5299C48.5907 30.3189 48.7772 30.1628 48.9882 30.1816C49.1992 30.2003 49.3553 30.3869 49.3365 30.5978L49.1951 32.1881ZM49.4779 29.0075C49.4591 29.2185 49.2726 29.3746 49.0616 29.3558C48.8506 29.3371 48.6945 29.1506 48.7133 28.9396L48.8546 27.3493C48.8734 27.1383 49.0599 26.9822 49.2709 27.001C49.4819 27.0197 49.638 27.2062 49.6192 27.4172L49.4779 29.0075ZM49.7606 25.827C49.7418 26.038 49.5553 26.194 49.3443 26.1753C49.1333 26.1565 48.9773 25.97 48.996 25.759L49.0667 24.9639C49.0854 24.7527 49.2718 24.5968 49.483 24.6155L50.2483 24.6836C50.4593 24.7023 50.6154 24.8889 50.5966 25.0998C50.5779 25.3108 50.3913 25.4669 50.1803 25.4482L49.7973 25.4141L49.7606 25.827ZM51.7111 25.5842C51.5001 25.5655 51.3441 25.379 51.3628 25.168C51.3816 24.957 51.5681 24.8009 51.7791 24.8197L53.3099 24.9557C53.5209 24.9745 53.6769 25.161 53.6582 25.372C53.6394 25.583 53.4529 25.7391 53.2419 25.7203L51.7111 25.5842ZM54.7726 25.8564C54.5616 25.8376 54.4056 25.6511 54.4243 25.4401C54.4431 25.2291 54.6296 25.073 54.8406 25.0918L56.3714 25.2279C56.5823 25.2466 56.7384 25.4332 56.7197 25.6441C56.7009 25.8551 56.5144 26.0112 56.3034 25.9924L54.7726 25.8564ZM57.8342 26.1285C57.6232 26.1097 57.4671 25.9232 57.4858 25.7122C57.5046 25.5012 57.6911 25.3452 57.9021 25.3639L59.4329 25.5C59.6439 25.5188 59.7999 25.7053 59.7812 25.9163C59.7624 26.1273 59.5759 26.2833 59.3649 26.2646L57.8342 26.1285ZM60.8956 26.4006C60.6846 26.3819 60.5286 26.1954 60.5473 25.9844C60.5661 25.7734 60.7526 25.6173 60.9636 25.6361L62.4944 25.7721C62.7054 25.7909 62.8614 25.9774 62.8427 26.1884C62.8239 26.3994 62.6374 26.5555 62.4264 26.5367L60.8956 26.4006ZM63.9571 26.6728C63.7462 26.654 63.5901 26.4675 63.6088 26.2565C63.6276 26.0455 63.8141 25.8895 64.0251 25.9082L65.5559 26.0443C65.7668 26.063 65.9229 26.2496 65.9041 26.4605C65.8854 26.6715 65.6989 26.8276 65.4879 26.8089L63.9571 26.6728ZM67.0186 26.9449C66.8076 26.9262 66.6515 26.7396 66.6703 26.5286C66.6891 26.3177 66.8756 26.1616 67.0866 26.1804L68.6173 26.3164C68.8283 26.3352 68.9844 26.5217 68.9656 26.7327C68.9469 26.9437 68.7603 27.0998 68.5494 27.081L67.0186 26.9449ZM70.0802 27.2171C69.8692 27.1983 69.7131 27.0118 69.7319 26.8008C69.7506 26.5898 69.9372 26.4337 70.1481 26.4525L71.6789 26.5886C71.8899 26.6073 72.046 26.7939 72.0272 27.0048C72.0085 27.2158 71.822 27.3719 71.611 27.3531L70.0802 27.2171ZM73.1417 27.4892C72.9307 27.4704 72.7746 27.2839 72.7933 27.0729C72.8121 26.8619 72.9986 26.7059 73.2096 26.7246L74.7404 26.8607C74.9514 26.8795 75.1074 27.066 75.0887 27.277C75.0699 27.488 74.8834 27.644 74.6724 27.6253L73.1417 27.4892ZM76.2031 27.7613C75.9921 27.7426 75.8361 27.5561 75.8548 27.3451C75.8736 27.1341 76.0601 26.978 76.2711 26.9968L77.8019 27.1328C78.0129 27.1516 78.1689 27.3381 78.1502 27.5491C78.1314 27.7601 77.9449 27.9162 77.7339 27.8974L76.2031 27.7613ZM79.2647 28.0335C79.0537 28.0147 78.8976 27.8282 78.9164 27.6172C78.9352 27.4062 79.1217 27.2502 79.3327 27.2689L80.8634 27.405C81.0744 27.4237 81.2305 27.6103 81.2117 27.8212C81.193 28.0322 81.0064 28.1883 80.7955 28.1696L79.2647 28.0335ZM82.3261 28.3056C82.1151 28.2868 81.9591 28.1003 81.9778 27.8893C81.9966 27.6783 82.1831 27.5223 82.3941 27.541L83.9248 27.6771C84.1358 27.6959 84.2919 27.8824 84.2732 28.0934C84.2544 28.3044 84.0679 28.4604 83.8569 28.4417L82.3261 28.3056ZM85.3877 28.5778C85.1767 28.559 85.0207 28.3725 85.0394 28.1615C85.0581 27.9505 85.2447 27.7944 85.4557 27.8132L86.9864 27.9492C87.1974 27.968 87.3535 28.1545 87.3347 28.3655C87.316 28.5765 87.1294 28.7326 86.9184 28.7138L85.3877 28.5778ZM88.4492 28.8499C88.2382 28.8311 88.0821 28.6446 88.1009 28.4336C88.1197 28.2226 88.3062 28.0666 88.5172 28.0853L90.0479 28.2214C90.2589 28.2401 90.415 28.4267 90.3962 28.6377C90.3775 28.8486 90.191 29.0047 89.98 28.986L88.4492 28.8499ZM91.5107 29.122C91.2997 29.1033 91.1437 28.9168 91.1624 28.7058C91.1812 28.4948 91.3677 28.3387 91.5787 28.3575L92.344 28.4255C92.4454 28.4345 92.5391 28.4834 92.6044 28.5615L93.1552 29.2197C93.2911 29.3822 93.2696 29.6245 93.1071 29.7604C92.9447 29.8963 92.7024 29.8748 92.5665 29.7123L92.1177 29.176L91.5107 29.122ZM93.668 31.0288C93.5321 30.8664 93.5536 30.6241 93.7161 30.4882C93.8786 30.3523 94.1208 30.3738 94.2567 30.5362L95.3583 31.8527C95.4942 32.0152 95.4727 32.2575 95.3103 32.3934C95.1478 32.5293 94.9055 32.5078 94.7696 32.3453L93.668 31.0288ZM95.8712 33.6618C95.7352 33.4994 95.7567 33.2571 95.9192 33.1212C96.0817 32.9853 96.3239 33.0068 96.4598 33.1692L97.5614 34.4858C97.6973 34.6482 97.6758 34.8905 97.5134 35.0264C97.3509 35.1623 97.1086 35.1408 96.9727 34.9783L95.8712 33.6618ZM98.0743 36.2948C97.9384 36.1324 97.9599 35.8901 98.1224 35.7542C98.2848 35.6183 98.5271 35.6398 98.663 35.8023L99.7646 37.1188C99.9005 37.2812 99.8789 37.5235 99.7165 37.6594C99.5541 37.7953 99.3118 37.7738 99.1759 37.6114L98.0743 36.2948ZM100.277 38.9278C100.142 38.7654 100.163 38.5231 100.325 38.3872C100.488 38.2513 100.73 38.2728 100.866 38.4353L101.968 39.7518C102.104 39.9142 102.082 40.1565 101.92 40.2924C101.757 40.4283 101.515 40.4068 101.379 40.2443L100.277 38.9278ZM102.481 41.5609C102.345 41.3984 102.366 41.1561 102.529 41.0202C102.691 40.8843 102.933 40.9058 103.069 41.0683L104.171 42.3848C104.307 42.5472 104.285 42.7895 104.123 42.9254C103.96 43.0613 103.718 43.0398 103.582 42.8774L102.481 41.5609Z" fill="#89A9C5"/>
<path fill-rule="evenodd" clip-rule="evenodd" d="M98.2697 62.325V100.33H41.2051V62.325H98.2697Z" fill="white"/>
<path fill-rule="evenodd" clip-rule="evenodd" d="M47.8912 57.8694L47.4951 62.3249H102.528L47.8912 57.8694Z" fill="#AAC3D7"/>
<path fill-rule="evenodd" clip-rule="evenodd" d="M46.8232 69.8879C46.4523 69.9777 46.0774 70.0571 45.6988 70.1256L45.6985 71.167H45.1475C42.9702 71.167 41.2051 72.9321 41.2051 75.1094V62.3249H47.4954L50.1425 32.5464C50.8774 32.8713 51.5888 33.2397 52.2736 33.6483V27.1855L86.2151 30.2026V46.3557C86.2151 48.6734 84.3334 50.5551 82.0156 50.5551H75.1841L64.8962 59.2666L65.1728 50.5551H61.9436C61.9438 50.5899 61.9438 50.6247 61.9438 50.6596C61.9427 55.0205 60.5278 59.0535 58.1332 62.3249C55.4145 66.039 51.4329 68.7715 46.8232 69.8879Z" fill="#B4CADE"/>
<path fill-rule="evenodd" clip-rule="evenodd" d="M47.4951 62.3249L50.1422 32.5464C50.8771 32.8713 51.5885 33.2397 52.2733 33.6483V27.1855L86.2147 30.2026V46.3557C86.2147 48.6734 84.333 50.5551 82.0153 50.5551H75.1837L64.8959 59.2666L65.1725 50.5551H61.9433C61.9434 50.5899 61.9435 50.6247 61.9435 50.6596C61.9423 55.0205 60.5275 59.0535 58.1328 62.3249H47.4951Z" fill="#AAC3D7"/>
<path fill-rule="evenodd" clip-rule="evenodd" d="M41.2051 75.1094V62.325H58.1332C55.4145 66.039 51.4329 68.7715 46.8232 69.8879C46.4523 69.9777 46.0774 70.0571 45.6988 70.1257L45.6985 71.167H45.1475C42.9702 71.167 41.2051 72.9321 41.2051 75.1094Z" fill="#E5E5E5"/>
<path fill-rule="evenodd" clip-rule="evenodd" d="M33.7832 64.8496L33.7783 82.7467L39.8892 82.7484L39.8941 64.8513L33.7832 64.8496Z" fill="#B4CADE"/>
<path fill-rule="evenodd" clip-rule="evenodd" d="M33.7828 64.0317L33.7812 69.7429C35.7285 70.1927 37.7656 70.1925 39.8921 69.7446L39.8937 64.0334L33.7828 64.0317Z" fill="#9EB6C9"/>
<path fill-rule="evenodd" clip-rule="evenodd" d="M36.3552 29.6226C25.4338 29.6196 16.5645 38.484 16.5615 49.4055C16.5585 60.327 25.423 69.1963 36.3445 69.1992C47.266 69.2022 56.1352 60.3378 56.1382 49.4163C56.1412 38.4948 47.2767 29.6255 36.3552 29.6226Z" fill="#89A9C5"/>
<path fill-rule="evenodd" clip-rule="evenodd" d="M26.9595 33.8863C27.2183 33.7465 27.3148 33.4229 27.175 33.1641C27.0352 32.9053 26.7115 32.8088 26.4528 32.9486C25.2109 33.6198 24.0636 34.4566 23.0448 35.4348C22.4743 35.9826 21.9442 36.5748 21.4603 37.2069C21.2815 37.4405 21.326 37.7753 21.5595 37.954C21.7931 38.1328 22.1279 38.0883 22.3066 37.8548C22.7575 37.2657 23.2515 36.7141 23.783 36.2037C24.7326 35.2919 25.802 34.5119 26.9595 33.8863Z" fill="#CFE5F8"/>
<path fill-rule="evenodd" clip-rule="evenodd" d="M37.7645 31.3745C38.0559 31.4148 38.3252 31.2111 38.3655 30.9197C38.4059 30.6284 38.2021 30.3591 37.9107 30.3187C34.5111 29.848 31.2005 30.5178 28.3782 32.0431C28.1195 32.1829 28.0229 32.5065 28.1627 32.7653C28.3026 33.0241 28.6262 33.1206 28.885 32.9808C31.514 31.56 34.5978 30.936 37.7645 31.3745Z" fill="#CFE5F8"/>
<path fill-rule="evenodd" clip-rule="evenodd" d="M36.3537 33.9714C27.8325 33.9691 20.9125 40.8854 20.9102 49.4066C20.9078 57.9279 27.8241 64.8479 36.3453 64.8502C44.8665 64.8525 51.7866 57.9362 51.7889 49.415C51.7912 40.8938 44.875 33.9737 36.3537 33.9714Z" fill="#E9F3FB"/>
<path fill-rule="evenodd" clip-rule="evenodd" d="M32.1199 79.2249C31.8744 79.2249 31.6389 79.3223 31.4653 79.4959C31.2916 79.6694 31.1941 79.9049 31.194 80.1504C31.1928 84.5298 31.1877 103.139 31.1865 107.518C31.1864 107.764 31.2839 107.999 31.4575 108.173C31.631 108.346 31.8665 108.444 32.112 108.444C32.3575 108.444 32.5929 108.542 32.7665 108.715C32.94 108.889 33.0375 109.124 33.0374 109.37C33.0374 109.615 33.1348 109.851 33.3084 110.025C33.4819 110.198 33.7173 110.296 33.9629 110.296C35.4199 110.296 38.2318 110.297 39.6888 110.297C39.9343 110.298 40.1698 110.2 40.3435 110.027C40.5171 109.853 40.6147 109.618 40.6148 109.372C40.6148 109.127 40.7124 108.891 40.8861 108.718C41.0597 108.544 41.2952 108.447 41.5407 108.447C41.5407 108.447 41.5407 108.447 41.5407 108.447C41.7862 108.447 42.0217 108.349 42.1954 108.176C42.369 108.002 42.4666 107.767 42.4667 107.521C42.4679 103.142 42.473 84.5329 42.4741 80.1535C42.4742 79.9079 42.3767 79.6724 42.2032 79.4988C42.0296 79.3252 41.7942 79.2276 41.5487 79.2275C41.3032 79.2274 41.0678 79.1298 40.8942 78.9562C40.7206 78.7825 40.6232 78.5471 40.6232 78.3015C40.6233 78.056 40.5258 77.8206 40.3523 77.6469C40.1787 77.4733 39.9433 77.3757 39.6978 77.3756C38.2408 77.3752 35.4288 77.3744 33.9718 77.374C33.7263 77.374 33.4908 77.4714 33.3172 77.645C33.1436 77.8185 33.0459 78.054 33.0459 78.2995C33.0458 78.545 32.9482 78.7804 32.7746 78.954C32.6009 79.1275 32.3655 79.225 32.1199 79.2249Z" fill="#89A9C5"/>
<path fill-rule="evenodd" clip-rule="evenodd" d="M33.7784 82.8777C33.7785 82.5094 33.4796 82.2103 33.1113 82.2102C32.7429 82.2101 32.4439 82.509 32.4438 82.8774L32.4395 98.6316C32.4394 98.9999 32.7383 99.299 33.1066 99.2991C33.4749 99.2992 33.774 99.0003 33.7741 98.632L33.7784 82.8777Z" fill="#D7EBFC"/>
<path fill-rule="evenodd" clip-rule="evenodd" d="M33.7729 102.014C33.773 101.646 33.4741 101.347 33.1058 101.346C32.7374 101.346 32.4384 101.645 32.4383 102.014L32.4375 104.792C32.4374 105.16 32.7363 105.459 33.1047 105.459C33.4729 105.46 33.7721 105.161 33.7721 104.792L33.7729 102.014Z" fill="#D7EBFC"/>
<path fill-rule="evenodd" clip-rule="evenodd" d="M46.4678 15.7958V45.1122C46.4678 47.4299 48.3495 49.3116 50.6672 49.3116H59.367L59.0904 58.0231L69.3783 49.3116H76.2098C78.5276 49.3116 80.4092 47.4299 80.4092 45.1122V15.7958C80.4092 13.4782 78.5276 11.5964 76.2098 11.5964H50.6672C48.3495 11.5964 46.4678 13.4782 46.4678 15.7958Z" fill="#8ABDE0"/>
<path fill-rule="evenodd" clip-rule="evenodd" d="M59.3668 49.3118L66.6569 49.3263L59.3105 51.0818L59.3668 49.3118Z" fill="#729FBD"/>
<path d="M75.658 36.2469L70.6506 41.6911L63.3916 35.0145L57.2714 41.6685L52.3565 37.1479L58.4767 30.4939L51.2178 23.8173L56.2252 18.373L63.4842 25.0497L69.6044 18.3956L74.5193 22.9162L68.3991 29.5703L75.658 36.2469Z" fill="white"/>
<path fill-rule="evenodd" clip-rule="evenodd" d="M10.6274 55.4658C11.4969 53.9276 13.4516 53.3846 14.9899 54.2541C16.5281 55.1236 17.071 57.0783 16.2016 58.6166C15.3321 60.1548 13.3773 60.6978 11.8391 59.8283C10.3009 58.9588 9.75793 57.0041 10.6274 55.4658ZM11.3242 55.8597C11.9763 54.706 13.4423 54.2988 14.596 54.9509C15.7497 55.603 16.1569 57.0691 15.5048 58.2227C14.8527 59.3764 13.3866 59.7836 12.233 59.1315C11.0793 58.4794 10.6721 57.0133 11.3242 55.8597Z" fill="#89A9C5"/>
<path fill-rule="evenodd" clip-rule="evenodd" d="M114.376 75.4317C114.269 77.3688 112.609 78.8547 110.672 78.7478C108.735 78.6409 107.249 76.9813 107.356 75.0442C107.463 73.1071 109.122 71.6212 111.06 71.7281C112.997 71.835 114.483 73.4945 114.376 75.4317ZM113.498 75.3832C113.418 76.8361 112.173 77.9505 110.721 77.8703C109.268 77.7901 108.153 76.5455 108.233 75.0926C108.314 73.6398 109.558 72.5254 111.011 72.6055C112.464 72.6857 113.578 73.9304 113.498 75.3832Z" fill="#89A9C5"/>
<path fill-rule="evenodd" clip-rule="evenodd" d="M13.6085 66.3025C14.0451 65.53 15.0267 65.2574 15.7991 65.694C16.5716 66.1306 16.8442 67.1122 16.4076 67.8846C15.971 68.657 14.9894 68.9297 14.217 68.4931C13.4446 68.0565 13.1719 67.0749 13.6085 66.3025Z" fill="#89A9C5"/>
<path fill-rule="evenodd" clip-rule="evenodd" d="M111.163 55.2386C111.105 56.2899 110.205 57.0964 109.153 57.0384C108.102 56.9803 107.296 56.0796 107.354 55.0283C107.412 53.977 108.312 53.1705 109.364 53.2285C110.415 53.2866 111.221 54.1872 111.163 55.2386Z" fill="#89A9C5"/>
<path d="M22.8395 76.1354C22.8111 76.1855 22.764 76.2224 22.7084 76.2378C22.6529 76.2532 22.5935 76.246 22.5434 76.2176L22.5433 76.2176C22.2714 76.0639 21.9497 76.0245 21.6487 76.1081C21.3478 76.1917 21.0925 76.3914 20.9388 76.6632C20.934 76.6717 20.9294 76.6799 20.9248 76.6879C20.8763 76.7738 20.7673 76.8041 20.6814 76.7555C20.6191 76.7203 20.5474 76.6797 20.485 76.6445C20.3991 76.5959 20.3688 76.4869 20.4174 76.4011C20.4178 76.4003 20.4182 76.3996 20.4186 76.3989C20.7456 75.8203 20.5417 75.0862 19.9632 74.7592L19.9631 74.7591C19.876 74.7099 19.8453 74.5995 19.8946 74.5124C19.9301 74.4494 19.9711 74.3771 20.0066 74.3141C20.0558 74.2271 20.1663 74.1964 20.2534 74.2456L20.2534 74.2457C20.832 74.5727 21.5661 74.3688 21.8931 73.7902C21.8935 73.7895 21.8939 73.7888 21.8944 73.788C21.9429 73.7022 22.0519 73.6719 22.1378 73.7204C22.2001 73.7557 22.2719 73.7962 22.3342 73.8315C22.4201 73.88 22.4504 73.989 22.4018 74.0749C22.3973 74.0829 22.3927 74.0911 22.3879 74.0995C22.2342 74.3714 22.1948 74.6932 22.2784 74.9941C22.362 75.295 22.5617 75.5504 22.8336 75.704L22.8336 75.7041C22.8838 75.7324 22.9206 75.7796 22.9361 75.8351C22.9515 75.8906 22.9442 75.95 22.9159 76.0002C22.891 76.0443 22.8644 76.0913 22.8395 76.1354Z" fill="#89A9C5"/>
<path d="M83.5174 22.1549C83.5209 22.0925 83.549 22.0341 83.5955 21.9924C83.642 21.9508 83.7032 21.9293 83.7655 21.9327L83.7656 21.9327C84.1034 21.9514 84.4349 21.8351 84.687 21.6093C84.9391 21.3836 85.0912 21.067 85.1098 20.7292C85.1104 20.7187 85.1109 20.7085 85.1115 20.6985C85.1174 20.5918 85.2087 20.51 85.3154 20.5159C85.3929 20.5202 85.4821 20.5251 85.5595 20.5294C85.6663 20.5353 85.748 20.6266 85.7421 20.7333C85.7421 20.7342 85.742 20.7351 85.742 20.736C85.7023 21.455 86.253 22.0701 86.972 22.1097H86.972C87.0802 22.1157 87.1631 22.2083 87.1571 22.3164C87.1528 22.3947 87.1479 22.4846 87.1435 22.5628C87.1376 22.671 87.045 22.7539 86.9368 22.7479C86.9368 22.7479 86.9367 22.7479 86.9367 22.7479C86.2178 22.7082 85.6027 23.2589 85.5631 23.9779C85.563 23.9788 85.563 23.9797 85.5629 23.9806C85.557 24.0874 85.4657 24.1691 85.359 24.1632C85.2815 24.1589 85.1924 24.154 85.1148 24.1497C85.0081 24.1438 84.9264 24.0525 84.9323 23.9458C84.9328 23.9359 84.9334 23.9257 84.9339 23.9152C84.9526 23.5773 84.8363 23.2459 84.6105 22.9938C84.3848 22.7417 84.0682 22.5896 83.7304 22.5709H83.7303C83.6679 22.5675 83.6095 22.5394 83.5679 22.4929C83.5262 22.4464 83.5047 22.3852 83.5082 22.3228C83.5112 22.268 83.5144 22.2097 83.5174 22.1549Z" fill="#89A9C5"/>
<path fill-rule="evenodd" clip-rule="evenodd" d="M101.292 57C103.469 57 105.234 58.7651 105.234 60.9425C105.234 70.4914 105.234 94.7749 105.234 104.324C105.234 105.369 104.819 106.372 104.079 107.112C103.34 107.851 102.337 108.266 101.292 108.266C89.66 108.266 55.5741 108.266 43.9424 108.266C41.7651 108.266 40 106.501 40 104.324C40 96.8231 40 80.5789 40 73.0781C40 70.9007 41.7651 69.1356 43.9424 69.1356C50.9102 69.1356 65.1705 69.1356 70.5242 69.1356C71.833 69.1356 73.0564 68.4861 73.7897 67.4021C75.3501 65.0954 78.0932 61.0403 79.6536 58.7335C80.3869 57.6495 81.6104 57 82.9191 57C86.995 57 96.0556 57 101.292 57Z" fill="#F8C174"/>
</svg>
