<svg width="16" height="17" viewBox="0 0 16 17" fill="none" xmlns="http://www.w3.org/2000/svg">
<path d="M10.546 13.8333L13.9993 13.8333C14.1762 13.8333 14.3457 13.7631 14.4708 13.6381C14.5958 13.513 14.666 13.3435 14.666 13.1667C14.666 12.9898 14.5958 12.8203 14.4708 12.6952C14.3457 12.5702 14.1762 12.5 13.9993 12.5L10.546 12.5C10.4059 12.1139 10.1503 11.7803 9.81391 11.5445C9.47755 11.3088 9.07676 11.1823 8.66602 11.1823C8.25527 11.1823 7.85448 11.3088 7.51813 11.5445C7.18177 11.7803 6.92615 12.1139 6.78602 12.5L1.99935 12.5C1.82254 12.5 1.65297 12.5702 1.52794 12.6952C1.40292 12.8203 1.33268 12.9898 1.33268 13.1667C1.33268 13.3435 1.40292 13.513 1.52794 13.6381C1.65297 13.7631 1.82254 13.8333 1.99935 13.8333L6.78602 13.8333C6.92615 14.2194 7.18177 14.553 7.51813 14.7888C7.85448 15.0245 8.25527 15.151 8.66602 15.151C9.07676 15.151 9.47755 15.0245 9.81391 14.7888C10.1503 14.553 10.4059 14.2194 10.546 13.8333ZM7.99935 13.1667C7.99935 13.0348 8.03845 12.9059 8.1117 12.7963C8.18496 12.6866 8.28908 12.6012 8.41089 12.5507C8.53271 12.5003 8.66676 12.4871 8.79608 12.5128C8.9254 12.5385 9.04418 12.602 9.13742 12.6952C9.23065 12.7885 9.29415 12.9073 9.31987 13.0366C9.3456 13.1659 9.33239 13.3 9.28194 13.4218C9.23148 13.5436 9.14603 13.6477 9.0364 13.721C8.92676 13.7942 8.79787 13.8333 8.66602 13.8333C8.4892 13.8333 8.31964 13.7631 8.19461 13.6381C8.06959 13.513 7.99935 13.3435 7.99935 13.1667ZM6.54602 9.16665L13.9993 9.16665C14.1762 9.16665 14.3457 9.09641 14.4708 8.97139C14.5958 8.84636 14.666 8.67679 14.666 8.49998C14.666 8.32317 14.5958 8.1536 14.4708 8.02858C14.3457 7.90355 14.1762 7.83332 13.9993 7.83332L6.54602 7.83332C6.40588 7.44722 6.15026 7.11362 5.81391 6.87788C5.47755 6.64213 5.07676 6.51567 4.66602 6.51567C4.25527 6.51567 3.85448 6.64213 3.51813 6.87788C3.18177 7.11362 2.92615 7.44722 2.78602 7.83332L1.99935 7.83332C1.82254 7.83332 1.65297 7.90355 1.52794 8.02858C1.40292 8.1536 1.33268 8.32317 1.33268 8.49998C1.33268 8.67679 1.40292 8.84636 1.52794 8.97139C1.65297 9.09641 1.82254 9.16665 1.99935 9.16665L2.78602 9.16665C2.92615 9.55275 3.18177 9.88634 3.51813 10.1221C3.85448 10.3578 4.25527 10.4843 4.66602 10.4843C5.07676 10.4843 5.47755 10.3578 5.81391 10.1221C6.15026 9.88634 6.40588 9.55275 6.54602 9.16665ZM3.99935 8.49998C3.99935 8.36813 4.03845 8.23924 4.1117 8.1296C4.18496 8.01997 4.28908 7.93452 4.41089 7.88406C4.53271 7.8336 4.66676 7.8204 4.79608 7.84613C4.9254 7.87185 5.04419 7.93534 5.13742 8.02858C5.23066 8.12181 5.29415 8.2406 5.31987 8.36992C5.3456 8.49924 5.33239 8.63329 5.28194 8.75511C5.23148 8.87692 5.14603 8.98104 5.0364 9.0543C4.92676 9.12755 4.79787 9.16665 4.66602 9.16665C4.48921 9.16665 4.31964 9.09641 4.19461 8.97139C4.06959 8.84636 3.99935 8.67679 3.99935 8.49998ZM11.8793 4.49998L13.9993 4.49998C14.1762 4.49998 14.3457 4.42975 14.4708 4.30472C14.5958 4.1797 14.666 4.01013 14.666 3.83332C14.666 3.65651 14.5958 3.48694 14.4708 3.36191C14.3457 3.23689 14.1762 3.16665 13.9993 3.16665L11.8793 3.16665C11.7392 2.78055 11.4836 2.44696 11.1472 2.21121C10.8109 1.97547 10.4101 1.849 9.99935 1.849C9.5886 1.849 9.18782 1.97547 8.85146 2.21121C8.5151 2.44696 8.25949 2.78055 8.11935 3.16665L1.99935 3.16665C1.82254 3.16665 1.65297 3.23689 1.52794 3.36191C1.40292 3.48694 1.33268 3.65651 1.33268 3.83332C1.33268 4.01013 1.40292 4.1797 1.52794 4.30472C1.65297 4.42974 1.82254 4.49998 1.99935 4.49998L8.11935 4.49998C8.25949 4.88608 8.5151 5.21968 8.85146 5.45542C9.18782 5.69117 9.5886 5.81763 9.99935 5.81763C10.4101 5.81763 10.8109 5.69117 11.1472 5.45542C11.4836 5.21968 11.7392 4.88608 11.8793 4.49998ZM9.33268 3.83332C9.33268 3.70146 9.37178 3.57257 9.44504 3.46294C9.51829 3.3533 9.62241 3.26786 9.74423 3.2174C9.86604 3.16694 10.0001 3.15374 10.1294 3.17946C10.2587 3.20518 10.3775 3.26868 10.4708 3.36191C10.564 3.45515 10.6275 3.57394 10.6532 3.70326C10.6789 3.83258 10.6657 3.96662 10.6153 4.08844C10.5648 4.21026 10.4794 4.31438 10.3697 4.38763C10.2601 4.46088 10.1312 4.49998 9.99935 4.49998C9.82254 4.49998 9.65297 4.42975 9.52794 4.30472C9.40292 4.1797 9.33268 4.01013 9.33268 3.83332Z" fill="#737373"/>
</svg>
