<svg width="123" height="123" viewBox="0 0 123 123" fill="none" xmlns="http://www.w3.org/2000/svg">
<g clip-path="url(#clip0_1313_5558)">
<path d="M16.692 48.6004V47.5266H15.9781V48.6004H14.9043V49.3143H15.9781V50.3881H16.692V49.3143H17.7658V48.6004H16.692Z" fill="#89A9C5"/>
<path d="M60.1919 44.9018V42.3953H58.5258V44.9018H56.0195V46.5679H58.5258V49.0744H60.1919V46.5679H62.6987V44.9018H60.1919Z" fill="#89A9C5"/>
<path d="M9.50862 95.2743C9.50862 95.5358 9.29657 95.7479 9.03507 95.7479C8.77358 95.7479 8.56152 95.5358 8.56152 95.2743C8.56152 95.0128 8.77358 94.8008 9.03507 94.8008C9.29657 94.8008 9.50862 95.0128 9.50862 95.2743Z" fill="#EEF1FF"/>
<path d="M28.935 30.6341V29.2041H27.9844V30.6341H26.5547V31.5844H27.9844V33.0144H28.935V31.5844H30.365V30.6341H28.935Z" fill="#89A9C5"/>
<path d="M96.9723 27.4937V26.3752H96.2288V27.4937H95.1104V28.2372H96.2288V29.3556H96.9723V28.2372H98.0907V27.4937H96.9723Z" fill="#89A9C5"/>
<path d="M61.8565 108.931C94.3621 108.931 120.713 106.973 120.713 104.558C120.713 102.144 94.3621 100.186 61.8565 100.186C29.351 100.186 3 102.144 3 104.558C3 106.973 29.351 108.931 61.8565 108.931Z" fill="#CEDAE5"/>
<path d="M102.08 101.723C102.08 102.85 101.158 103.773 100.031 103.773H23.6816C22.5542 103.773 21.6318 102.85 21.6318 101.723V55.0957C21.6318 53.9683 22.5542 53.0459 23.6816 53.0459H100.031C101.158 53.0459 102.08 53.9683 102.08 55.0957V101.723Z" fill="#BFD6E9"/>
<path d="M94.8751 56.2925H28.8379V100.526H94.8751V56.2925Z" fill="#E9F3FB"/>
<path d="M75.6456 71.9549H66.5646V62.8003H48.0303V94.6556H75.6823V71.9918L75.6456 71.9549ZM62.3452 86.6625C62.0003 86.9948 61.5831 87.1609 61.094 87.1609C60.5926 87.1609 60.1752 86.9948 59.8434 86.6625C59.5108 86.3302 59.3445 85.9195 59.3445 85.4304C59.3445 84.9289 59.5106 84.5151 59.8434 84.189C60.1752 83.8628 60.5926 83.6998 61.094 83.6998C61.5831 83.6998 62 83.8659 62.3452 84.1982C62.6898 84.5308 62.8625 84.9412 62.8625 85.4304C62.8622 85.9195 62.6895 86.3305 62.3452 86.6625ZM65.8908 78.6494C65.602 79.0445 65.1129 79.4863 64.4234 79.9754C63.9594 80.3141 63.6206 80.5744 63.4074 80.7563C63.1943 80.9383 63.0344 81.1417 62.9281 81.3674C62.8212 81.5934 62.7682 81.8694 62.7682 82.1948V82.5525H59.4575V82.1574C59.4575 80.878 59.9654 79.8811 60.981 79.1662L61.4699 78.8278C61.9339 78.527 62.257 78.2794 62.4387 78.085C62.6203 77.8908 62.7115 77.6494 62.7115 77.3606C62.7115 76.6335 62.103 76.2696 60.8867 76.2696C60.3225 76.2696 59.7394 76.345 59.1372 76.4954C58.5356 76.6458 57.9648 76.8592 57.4257 77.1346V74.2381C58.5792 73.7115 59.8711 73.4481 61.3005 73.4481C62.843 73.4481 64.0657 73.7712 64.9684 74.4169C65.8713 75.0628 66.3227 75.956 66.3227 77.097C66.3233 77.7373 66.179 78.2546 65.8908 78.6494Z" fill="#BFD6E9"/>
<path d="M68.1084 63.6128V70.394H74.8353L68.1084 63.6128Z" fill="#D0DBF7"/>
<path d="M59.333 72.8735H17.4463V103.772H59.333V72.8735Z" fill="#F5F9FF"/>
<path d="M59.333 72.8735H17.4463V76.7274H59.333V72.8735Z" fill="#8ABDE0"/>
<path d="M20.8088 74.8895C20.8088 75.3766 20.4139 75.7714 19.9268 75.7714C19.4398 75.7714 19.0449 75.3766 19.0449 74.8895C19.0449 74.4024 19.4398 74.0076 19.9268 74.0076C20.4139 74.0076 20.8088 74.4024 20.8088 74.8895Z" fill="#EB725F"/>
<path d="M23.7785 74.8892C23.7785 75.3763 23.3836 75.7712 22.8966 75.7712C22.4095 75.7712 22.0146 75.3763 22.0146 74.8892C22.0146 74.4022 22.4095 74.0073 22.8966 74.0073C23.3836 74.0073 23.7785 74.4022 23.7785 74.8892Z" fill="#F9AB43"/>
<path d="M26.7482 74.8892C26.7482 75.3763 26.3534 75.7712 25.8663 75.7712C25.3792 75.7712 24.9844 75.3763 24.9844 74.8892C24.9844 74.4022 25.3792 74.0073 25.8663 74.0073C26.3534 74.0073 26.7482 74.4022 26.7482 74.8892Z" fill="#6E7FDD"/>
<path d="M106.268 37.9473H66.9521V66.9491H106.268V37.9473Z" fill="#F2F2F2"/>
<path d="M106.268 37.9473H66.9521V41.5646H106.268V37.9473Z" fill="#E4F0FC"/>
<path d="M70.1079 39.8391C70.1079 40.2962 69.7371 40.6669 69.28 40.6669C68.8229 40.6669 68.4521 40.2964 68.4521 39.8391C68.4521 39.382 68.8229 39.0112 69.28 39.0112C69.7371 39.0115 70.1079 39.382 70.1079 39.8391Z" fill="#EB725F"/>
<path d="M72.0681 40.6669C72.5253 40.6669 72.8959 40.2963 72.8959 39.8391C72.8959 39.3819 72.5253 39.0112 72.0681 39.0112C71.6109 39.0112 71.2402 39.3819 71.2402 39.8391C71.2402 40.2963 71.6109 40.6669 72.0681 40.6669Z" fill="#F9AB43"/>
<path d="M74.8542 40.6669C75.3114 40.6669 75.6821 40.2963 75.6821 39.8391C75.6821 39.3819 75.3114 39.0112 74.8542 39.0112C74.397 39.0112 74.0264 39.3819 74.0264 39.8391C74.0264 40.2963 74.397 40.6669 74.8542 40.6669Z" fill="#6E7FDD"/>
<path d="M52.2411 53.0457H34.3438L40.7911 29.3833H45.7941L52.2411 53.0457Z" fill="#F8C174"/>
<mask id="mask0_1313_5558" style="mask-type:luminance" maskUnits="userSpaceOnUse" x="34" y="29" width="19" height="25">
<path d="M52.2411 53.0457H34.3438L40.7911 29.3833H45.7941L52.2411 53.0457Z" fill="white"/>
</mask>
<g mask="url(#mask0_1313_5558)">
<path d="M57.6526 39.3103H28.9326V42.0608H57.6526V39.3103Z" fill="#FFCF74"/>
<path d="M57.6526 46.0981H28.9326V48.8484H57.6526V46.0981Z" fill="#FFCF74"/>
<path d="M57.6526 32.5225H28.9326V35.273H57.6526V32.5225Z" fill="#FFCF74"/>
</g>
<path opacity="0.1" d="M52.2408 53.0459L45.7935 29.3835H43.4219C45.351 32.7298 46.5055 36.9746 46.5055 41.5943C46.5055 45.8714 45.516 49.827 43.8382 53.0459H52.2408Z" fill="#0046A0"/>
<path d="M54.0965 51.532H32.4883V53.0455H54.0965V51.532Z" fill="#EB725F"/>
<g opacity="0.3">
<path d="M41.3994 31.4227C40.8403 33.4748 40.2812 35.5269 39.7222 37.5787C38.8318 40.8468 37.9411 44.1152 37.0508 47.3833C36.8473 48.1302 36.6439 48.8768 36.4405 49.6237C36.2903 50.1751 37.1456 50.4106 37.2957 49.8594C37.8548 47.8073 38.4139 45.7553 38.973 43.7034C39.8633 40.4353 40.754 37.1669 41.6443 33.8988C41.8478 33.1519 42.0512 32.4053 42.2547 31.6584C42.4051 31.107 41.5495 30.8718 41.3994 31.4227Z" fill="white"/>
</g>
<path d="M106.32 103.773H75.5244L86.6178 63.0574H95.2264L106.32 103.773Z" fill="#F8C174"/>
<mask id="mask1_1313_5558" style="mask-type:luminance" maskUnits="userSpaceOnUse" x="75" y="63" width="32" height="41">
<path d="M106.32 103.772H75.5244L86.6178 63.0571H95.2264L106.32 103.772Z" fill="white"/>
</mask>
<g mask="url(#mask1_1313_5558)">
<path d="M115.631 80.1379H66.2139V84.8706H115.631V80.1379Z" fill="#FFCF74"/>
<path d="M115.631 91.8177H66.2139V96.5504H115.631V91.8177Z" fill="#FFCF74"/>
<path d="M115.631 68.458H66.2139V73.1907H115.631V68.458Z" fill="#FFCF74"/>
</g>
<path opacity="0.1" d="M106.32 103.773L95.2264 63.0579H91.1455C94.4651 68.8159 96.4514 76.1196 96.4514 84.0686C96.4514 91.4281 94.7485 98.2341 91.8616 103.773L106.32 103.773Z" fill="#0046A0"/>
<path d="M109.513 101.168H72.332V103.773H109.513V101.168Z" fill="#EB725F"/>
<g opacity="0.3">
<path d="M87.6658 66.5669C86.7037 70.0976 85.7419 73.6286 84.7798 77.1594C83.2475 82.7829 81.7153 88.4062 80.1831 94.0298C79.8329 95.3148 79.4829 96.5997 79.1329 97.8847C78.8743 98.8335 80.3461 99.2383 80.6046 98.2903C81.5667 94.7595 82.5286 91.2285 83.4907 87.6978C85.0229 82.0742 86.5551 76.4509 88.0873 70.8274C88.4373 69.5424 88.7876 68.2575 89.1376 66.9725C89.3961 66.0237 87.9244 65.6189 87.6658 66.5669Z" fill="white"/>
</g>
<path d="M82.4771 32.8344L82.2236 33.906L97.4529 37.5087L97.7065 36.4371L82.4771 32.8344Z" fill="#B4CADE"/>
<path d="M91.069 34.4894L90.6465 36.2754L97.7255 37.95L98.1479 36.1641L91.069 34.4894Z" fill="#89A9C5"/>
<path d="M79.9077 37.9295C83.0721 37.8704 85.5893 35.2571 85.5301 32.0926C85.4709 28.9281 82.8577 26.4108 79.6934 26.47C76.5291 26.5292 74.0118 29.1425 74.071 32.3069C74.1302 35.4714 76.7434 37.9887 79.9077 37.9295Z" fill="#89A9C5"/>
<path d="M82.2347 35.9562C84.3124 34.613 84.9079 31.8398 83.5647 29.762C82.2215 27.6842 79.4483 27.0887 77.3705 28.4319C75.2928 29.7751 74.6973 32.5484 76.0405 34.6261C77.3837 36.7039 80.1569 37.2994 82.2347 35.9562Z" fill="#E9F3FB"/>
<path d="M82.5656 30.5226C82.3847 31.2877 81.6179 31.7609 80.8528 31.5801C80.0877 31.3992 79.6145 30.6323 79.7954 29.8672C79.9763 29.1021 80.7431 28.6289 81.5082 28.8098C82.273 28.9907 82.7465 29.7575 82.5656 30.5226Z" fill="white"/>
<path d="M56.3586 31.9156C56.6158 31.0586 57.1567 30.4928 57.981 30.2179L58.3766 30.0896C58.7478 29.9814 59.0141 29.8805 59.1752 29.7867C59.3359 29.6929 59.4458 29.5497 59.5037 29.3562C59.65 28.8692 59.3154 28.5028 58.5006 28.2583C58.1227 28.1448 57.7168 28.078 57.283 28.0577C56.8498 28.0375 56.4244 28.0657 56.0078 28.1418L56.5905 26.2011C57.4693 26.0802 58.3876 26.1637 59.3454 26.4512C60.3787 26.7615 61.133 27.2237 61.6081 27.8379C62.0831 28.4523 62.2058 29.1415 61.9762 29.9061C61.8476 30.3348 61.647 30.6522 61.3744 30.8587C61.1015 31.0652 60.6849 31.2631 60.1245 31.4519C59.7456 31.5856 59.466 31.6917 59.2867 31.7706C59.1073 31.8498 58.9592 31.9538 58.8424 32.0837C58.7256 32.2136 58.6343 32.3879 58.5687 32.6059L58.4967 32.8455L56.2786 32.1796L56.3586 31.9156ZM55.7108 35.0116C55.5548 34.7221 55.5261 34.4136 55.6245 34.0858C55.7254 33.7499 55.9199 33.506 56.2084 33.3543C56.4962 33.2027 56.8088 33.1773 57.1447 33.2782C57.4724 33.3766 57.7183 33.5719 57.8826 33.8637C58.0466 34.1558 58.0796 34.4656 57.9812 34.7933C57.8828 35.121 57.6845 35.3616 57.3868 35.5148C57.0888 35.668 56.776 35.6954 56.4483 35.597C56.1126 35.4961 55.8664 35.3009 55.7108 35.0116Z" fill="#89A9C5"/>
<path d="M24.2928 41.9131C24.7717 42.669 24.8449 43.4484 24.5126 44.2509L24.3504 44.634C24.1888 44.9855 24.0906 45.2527 24.056 45.4357C24.0214 45.6184 24.0578 45.7954 24.166 45.9658C24.4383 46.3955 24.9341 46.3827 25.6528 45.9271C25.9862 45.7157 26.3026 45.4528 26.6019 45.1387C26.9011 44.8246 27.1584 44.4848 27.3739 44.12L28.4584 45.8315C27.9739 46.5746 27.3093 47.2139 26.4645 47.7491C25.5531 48.3266 24.7097 48.5936 23.9346 48.5501C23.1593 48.5065 22.5579 48.1475 22.1308 47.4734C21.8912 47.0955 21.7828 46.736 21.8051 46.3945C21.8279 46.0529 21.9514 45.6086 22.1756 45.0616C22.323 44.6875 22.4257 44.4072 22.4836 44.2199C22.5415 44.0326 22.5597 43.8525 22.5379 43.6793C22.5164 43.5058 22.4444 43.3229 22.3227 43.1304L22.1887 42.9191L24.1449 41.6795L24.2928 41.9131ZM22.378 39.3958C22.6991 39.4675 22.951 39.6481 23.1342 39.9372C23.322 40.2333 23.3788 40.5403 23.3043 40.8575C23.2305 41.1744 23.0447 41.4271 22.7485 41.6149C22.4595 41.7981 22.151 41.856 21.8228 41.7889C21.4946 41.7212 21.2389 41.5434 21.0559 41.2544C20.8727 40.9654 20.821 40.6579 20.9002 40.3328C20.9796 40.0074 21.1638 39.7529 21.4528 39.5697C21.7488 39.3817 22.0575 39.3235 22.378 39.3958Z" fill="#89A9C5"/>
<path d="M76.8121 57.8744H72.0738V56.2507L76.9597 49.682H79.5429V55.8078H81.0043V57.8744H79.5429V60H76.8121V57.8744ZM77.2107 55.8078V52.8556L75.0408 55.8078H77.2107ZM86.2037 60.2214C85.2491 60.2214 84.4126 60.0098 83.6943 59.5867C82.9759 59.1537 82.4199 58.5337 82.0263 57.7268C81.6425 56.9198 81.4506 55.9604 81.4506 54.8484C81.4506 53.7364 81.6425 52.7769 82.0263 51.9699C82.4101 51.163 82.9562 50.543 83.6648 50.11C84.3831 49.6771 85.2294 49.4606 86.2037 49.4606C87.1779 49.4606 88.0193 49.6771 88.7278 50.11C89.4462 50.543 89.9973 51.163 90.3811 51.9699C90.7649 52.7769 90.9567 53.7364 90.9567 54.8484C90.9567 55.9604 90.7599 56.9198 90.3663 57.7268C89.9825 58.5337 89.4314 59.1537 88.7131 59.5867C87.9947 60.0098 87.1582 60.2214 86.2037 60.2214ZM86.2037 57.7711C86.863 57.7711 87.3747 57.5152 87.7388 57.0035C88.1029 56.4918 88.285 55.7832 88.285 54.8779C88.285 53.9627 88.1029 53.2443 87.7388 52.7228C87.3846 52.1914 86.8728 51.9257 86.2037 51.9257C85.5345 51.9257 85.0179 52.1914 84.6537 52.7228C84.2995 53.2443 84.1223 53.9627 84.1223 54.8779C84.1223 55.7832 84.3044 56.4918 84.6685 57.0035C85.0326 57.5152 85.5443 57.7711 86.2037 57.7711ZM96.1429 57.8744H91.4045V56.2507L96.2905 49.682H98.8737V55.8078H100.335V57.8744H98.8737V60H96.1429V57.8744ZM96.5414 55.8078V52.8556L94.3715 55.8078H96.5414Z" fill="#BFD6E9"/>
<path d="M38.2228 83C34.2402 83 31 86.24 31 90.2228C31 94.2055 34.2402 97.4458 38.2228 97.4458C42.2055 97.4458 45.4458 94.2056 45.4458 90.2228C45.4458 86.24 42.2056 83 38.2228 83ZM38.2228 84.362C39.5938 84.362 40.8552 84.8363 41.8546 85.628L33.6278 93.8547C32.8363 92.8553 32.3618 91.5938 32.3618 90.223C32.362 86.9912 34.991 84.362 38.2228 84.362ZM38.2228 96.0837C36.8518 96.0837 35.5903 95.6092 34.5909 94.8176L42.8176 86.5909C43.6093 87.5903 44.0838 88.8518 44.0838 90.2226C44.0838 93.4544 41.4546 96.0837 38.2228 96.0837Z" fill="#EB725F"/>
</g>
<defs>
<clipPath id="clip0_1313_5558">
<rect width="123" height="123" fill="white"/>
</clipPath>
</defs>
</svg>
