<svg width="23" height="22" viewBox="0 0 23 22" fill="none" xmlns="http://www.w3.org/2000/svg">
<path d="M3.86838 12.8234C4.64473 9.09537 7.89014 6.44645 11.5408 6.44645C15.1903 6.44645 18.4357 9.09537 19.2132 12.8234C19.244 12.9714 19.3323 13.101 19.4587 13.1838C19.5851 13.2667 19.7392 13.2959 19.8871 13.2651C20.0351 13.2343 20.1647 13.146 20.2475 13.0196C20.3304 12.8933 20.3596 12.7392 20.3288 12.5912C19.4443 8.35089 15.7447 5.30811 11.5408 5.30811C7.33691 5.30811 3.6373 8.35089 2.7528 12.5912C2.72201 12.7392 2.75124 12.8933 2.83407 13.0196C2.9169 13.146 3.04655 13.2343 3.19448 13.2651C3.34241 13.2959 3.49652 13.2667 3.6229 13.1838C3.74928 13.101 3.83758 12.9714 3.86838 12.8234V12.8234ZM11.5294 8.72313C12.5861 8.72313 13.5995 9.14289 14.3467 9.89008C15.0939 10.6373 15.5136 11.6507 15.5136 12.7073C15.5136 13.764 15.0939 14.7774 14.3467 15.5246C13.5995 16.2718 12.5861 16.6915 11.5294 16.6915C10.4727 16.6915 9.45935 16.2718 8.71217 15.5246C7.96499 14.7774 7.54522 13.764 7.54522 12.7073C7.54522 11.6507 7.96499 10.6373 8.71217 9.89008C9.45935 9.14289 10.4727 8.72313 11.5294 8.72313V8.72313Z" fill="#6A707C"/>
</svg>
