<svg width="16" height="16" viewBox="0 0 16 16" fill="none" xmlns="http://www.w3.org/2000/svg">
<path d="M10.5467 13.3333L14 13.3333C14.1768 13.3333 14.3464 13.2631 14.4714 13.1381C14.5964 13.013 14.6667 12.8435 14.6667 12.6667C14.6667 12.4899 14.5964 12.3203 14.4714 12.1953C14.3464 12.0702 14.1768 12 14 12L10.5467 12C10.4065 11.6139 10.1509 11.2803 9.81455 11.0446C9.4782 10.8088 9.07741 10.6823 8.66666 10.6823C8.25592 10.6823 7.85513 10.8088 7.51877 11.0446C7.18242 11.2803 6.9268 11.6139 6.78666 12L2 12C1.82319 12 1.65362 12.0702 1.52859 12.1953C1.40357 12.3203 1.33333 12.4899 1.33333 12.6667C1.33333 12.8435 1.40357 13.013 1.52859 13.1381C1.65362 13.2631 1.82319 13.3333 2 13.3333L6.78666 13.3333C6.9268 13.7194 7.18242 14.053 7.51877 14.2888C7.85513 14.5245 8.25592 14.651 8.66666 14.651C9.07741 14.651 9.4782 14.5245 9.81455 14.2888C10.1509 14.053 10.4065 13.7194 10.5467 13.3333ZM8 12.6667C8 12.5348 8.0391 12.4059 8.11235 12.2963C8.18561 12.1867 8.28972 12.1012 8.41154 12.0507C8.53336 12.0003 8.6674 11.9871 8.79672 12.0128C8.92604 12.0385 9.04483 12.102 9.13807 12.1953C9.2313 12.2885 9.2948 12.4073 9.32052 12.5366C9.34624 12.6659 9.33304 12.8 9.28258 12.9218C9.23213 13.0436 9.14668 13.1477 9.03704 13.221C8.92741 13.2942 8.79852 13.3333 8.66666 13.3333C8.48985 13.3333 8.32028 13.2631 8.19526 13.1381C8.07024 13.013 8 12.8435 8 12.6667ZM6.54666 8.66667L14 8.66667C14.1768 8.66667 14.3464 8.59643 14.4714 8.4714C14.5964 8.34638 14.6667 8.17681 14.6667 8C14.6667 7.82319 14.5964 7.65362 14.4714 7.52859C14.3464 7.40357 14.1768 7.33333 14 7.33333L6.54666 7.33333C6.40653 6.94723 6.15091 6.61364 5.81455 6.37789C5.4782 6.14215 5.07741 6.01568 4.66666 6.01568C4.25592 6.01568 3.85513 6.14215 3.51877 6.37789C3.18242 6.61364 2.9268 6.94723 2.78666 7.33333L2 7.33333C1.82319 7.33333 1.65362 7.40357 1.52859 7.52859C1.40357 7.65362 1.33333 7.82319 1.33333 8C1.33333 8.17681 1.40357 8.34638 1.52859 8.4714C1.65362 8.59643 1.82319 8.66666 2 8.66667L2.78666 8.66667C2.9268 9.05277 3.18242 9.38636 3.51877 9.6221C3.85513 9.85785 4.25592 9.98432 4.66666 9.98432C5.07741 9.98432 5.4782 9.85785 5.81455 9.6221C6.15091 9.38636 6.40653 9.05277 6.54666 8.66667ZM4 8C4 7.86814 4.0391 7.73925 4.11235 7.62962C4.1856 7.51999 4.28973 7.43454 4.41154 7.38408C4.53336 7.33362 4.6674 7.32042 4.79673 7.34614C4.92605 7.37186 5.04483 7.43536 5.13807 7.52859C5.2313 7.62183 5.2948 7.74062 5.32052 7.86994C5.34624 7.99926 5.33304 8.1333 5.28258 8.25512C5.23213 8.37694 5.14668 8.48106 5.03705 8.55431C4.92741 8.62757 4.79852 8.66667 4.66666 8.66667C4.48985 8.66667 4.32028 8.59643 4.19526 8.4714C4.07023 8.34638 4 8.17681 4 8ZM11.88 4L14 4C14.1768 4 14.3464 3.92976 14.4714 3.80474C14.5964 3.67971 14.6667 3.51014 14.6667 3.33333C14.6667 3.15652 14.5964 2.98695 14.4714 2.86193C14.3464 2.7369 14.1768 2.66667 14 2.66667L11.88 2.66667C11.7399 2.28056 11.4842 1.94697 11.1479 1.71123C10.8115 1.47548 10.4107 1.34901 10 1.34901C9.58925 1.34901 9.18847 1.47548 8.85211 1.71123C8.51575 1.94697 8.26013 2.28056 8.12 2.66667L2 2.66666C1.82319 2.66666 1.65362 2.7369 1.52859 2.86193C1.40357 2.98695 1.33333 3.15652 1.33333 3.33333C1.33333 3.51014 1.40357 3.67971 1.52859 3.80474C1.65362 3.92976 1.82319 4 2 4L8.12 4C8.26013 4.3861 8.51575 4.71969 8.85211 4.95544C9.18846 5.19118 9.58925 5.31765 10 5.31765C10.4107 5.31765 10.8115 5.19118 11.1479 4.95544C11.4842 4.71969 11.7399 4.3861 11.88 4ZM9.33333 3.33333C9.33333 3.20148 9.37243 3.07258 9.44568 2.96295C9.51894 2.85332 9.62306 2.76787 9.74488 2.71741C9.86669 2.66695 10.0007 2.65375 10.1301 2.67947C10.2594 2.7052 10.3782 2.76869 10.4714 2.86193C10.5646 2.95516 10.6281 3.07395 10.6539 3.20327C10.6796 3.33259 10.6664 3.46664 10.6159 3.58845C10.5655 3.71027 10.48 3.81439 10.3704 3.88765C10.2607 3.9609 10.1319 4 10 4C9.82319 4 9.65362 3.92976 9.52859 3.80474C9.40357 3.67971 9.33333 3.51014 9.33333 3.33333Z" fill="white"/>
</svg>
