<svg width="32" height="32" viewBox="0 0 32 32" fill="none" xmlns="http://www.w3.org/2000/svg">
<g clip-path="url(#clip0_529_1512)">
<path d="M29.3337 10.6667V26.6667C29.3337 27.0203 29.1932 27.3594 28.9431 27.6095C28.6931 27.8595 28.3539 28 28.0003 28H4.00033C3.6467 28 3.30756 27.8595 3.05752 27.6095C2.80747 27.3594 2.66699 27.0203 2.66699 26.6667V9.33333H28.0003C28.3539 9.33333 28.6931 9.47381 28.9431 9.72386C29.1932 9.97391 29.3337 10.313 29.3337 10.6667ZM16.5523 6.66667H2.66699V5.33333C2.66699 4.97971 2.80747 4.64057 3.05752 4.39052C3.30756 4.14048 3.6467 4 4.00033 4H13.8857L16.5523 6.66667Z" fill="#F7C136"/>
<mask id="mask0_529_1512" style="mask-type:alpha" maskUnits="userSpaceOnUse" x="2" y="4" width="28" height="24">
<path d="M29.3337 10.6667V26.6667C29.3337 27.0203 29.1932 27.3594 28.9431 27.6095C28.6931 27.8595 28.3539 28 28.0003 28H4.00033C3.6467 28 3.30756 27.8595 3.05752 27.6095C2.80747 27.3594 2.66699 27.0203 2.66699 26.6667V9.33333H28.0003C28.3539 9.33333 28.6931 9.47381 28.9431 9.72386C29.1932 9.97391 29.3337 10.313 29.3337 10.6667ZM16.5523 6.66667H2.66699V5.33333C2.66699 4.97971 2.80747 4.64057 3.05752 4.39052C3.30756 4.14048 3.6467 4 4.00033 4H13.8857L16.5523 6.66667Z" fill="#FFD362"/>
</mask>
<g mask="url(#mask0_529_1512)">
<rect x="2.66699" y="4" width="26.6667" height="4" fill="#D69C06"/>
</g>
</g>
<defs>
<clipPath id="clip0_529_1512">
<rect width="32" height="32" fill="white"/>
</clipPath>
</defs>
</svg>
