<svg width="32" height="32" viewBox="0 0 32 32" fill="none" xmlns="http://www.w3.org/2000/svg">
<g clip-path="url(#clip0_710_1530)">
<path d="M25.0071 26.6479C22.579 28.6986 19.4291 30.0002 16.0001 30.0002C10.8978 30.0002 6.41879 27.1893 3.99072 23.0877L4.89974 18.8974L8.929 18.1494C9.86416 21.1681 12.686 23.383 16.0001 23.383C17.6079 23.383 19.1009 22.8744 20.3314 21.9721L24.2032 22.5627L25.0071 26.6479Z" fill="#59C36A"/>
<path d="M25.007 26.6475L24.2031 22.5623L20.3313 21.9717C19.1008 22.874 17.6078 23.3826 16 23.3826V29.9998C19.429 29.9998 22.5789 28.6982 25.007 26.6475Z" fill="#00A66C"/>
<path d="M8.61719 16.0001C8.61719 16.7547 8.73203 17.4766 8.92891 18.1493L3.99063 23.0876C2.76016 21.0204 2 18.5922 2 16.0001C2 13.4079 2.76016 10.9798 3.99063 8.9126L7.95399 9.59472L8.92891 13.8509C8.73203 14.5235 8.61719 15.2454 8.61719 16.0001Z" fill="#FFDA2D"/>
<path d="M30 16C30 20.2656 28.0258 24.0883 25.007 26.6477L20.3313 21.9719C21.2828 21.2828 22.0867 20.364 22.6117 19.2813H16C15.5406 19.2813 15.1797 18.9203 15.1797 18.4609V13.5391C15.1797 13.0796 15.5406 12.7188 16 12.7188H28.95C29.3437 12.7188 29.6883 12.9976 29.7539 13.3914C29.918 14.2445 30 15.1304 30 16Z" fill="#4086F4"/>
<path d="M22.6118 19.2813C22.0868 20.364 21.2828 21.2828 20.3313 21.9719L25.007 26.6477C28.0258 24.0883 30 20.2656 30 16C30 15.1304 29.918 14.2445 29.7539 13.3914C29.6883 12.9976 29.3437 12.7188 28.9499 12.7188H16V19.2813H22.6118Z" fill="#4175DF"/>
<path d="M25.2368 5.9101C25.2532 6.13979 25.1548 6.35312 25.0071 6.51713L21.4962 10.0117C21.2173 10.307 20.758 10.3398 20.4298 10.0937C19.1336 9.12578 17.6079 8.61719 16.0001 8.61719C12.686 8.61719 9.86416 10.832 8.929 13.8508L3.99072 8.9125C6.41879 4.81094 10.8978 2 16.0001 2C19.2649 2 22.4478 3.20312 24.9415 5.30307C25.122 5.45078 25.2204 5.68041 25.2368 5.9101Z" fill="#FF641A"/>
<path d="M20.4297 10.0937C20.7578 10.3398 21.2171 10.307 21.496 10.0117L25.007 6.51713C25.1547 6.35313 25.2531 6.13984 25.2367 5.9101C25.2202 5.68036 25.1218 5.45078 24.9414 5.30307C22.4477 3.20313 19.2648 2 16 2V8.61719C17.6078 8.61719 19.1335 9.12578 20.4297 10.0937Z" fill="#F03800"/>
</g>
<defs>
<clipPath id="clip0_710_1530">
<rect width="28" height="28" fill="white" transform="translate(2 2)"/>
</clipPath>
</defs>
</svg>
