<svg width="33" height="50" viewBox="0 0 33 50" fill="none" xmlns="http://www.w3.org/2000/svg">
<path fill-rule="evenodd" clip-rule="evenodd" d="M13.7902 50C13.5547 49.9093 13.3118 49.8345 13.0856 49.7249C11.969 49.1844 11.3351 48.3035 11.2777 47.0517C11.2484 46.3964 11.2563 45.7398 11.2703 45.0832C11.2804 44.5786 11.0902 44.2091 10.699 43.8834C9.44516 42.8396 8.14333 41.8401 6.99743 40.687C6.11526 39.7981 5.37723 38.7463 4.68858 37.692C3.32336 35.6047 2.07728 33.4371 0.703945 31.3551C-0.35771 29.7443 -0.0855277 28.3309 0.64454 27.3886C1.51683 26.2623 3.24309 25.8244 4.75403 26.3276C5.53745 26.5892 6.15667 27.071 6.68591 27.6956C7.83293 29.0476 8.99014 30.3931 10.2087 31.8171C10.22 31.5608 10.2334 31.3953 10.2334 31.2297C10.2346 25.0488 10.2319 18.8697 10.2361 12.6888C10.2373 10.8525 11.4734 9.33901 13.1769 9.05997C15.4638 8.68554 17.3816 10.3167 17.4117 12.6882C17.4331 14.3531 17.4163 16.0187 17.4163 17.6838C17.4163 17.8587 17.4163 18.0334 17.4163 18.2736C18.2772 17.9694 19.1181 17.8566 19.9655 18.1141C20.8064 18.3696 21.4702 18.8775 21.9821 19.6396C22.845 19.1011 23.7652 18.8549 24.7681 19.0603C25.7557 19.2639 26.5213 19.8084 27.0384 20.5632C27.7105 20.3738 28.3243 20.0927 28.9563 20.042C31.013 19.8772 32.7433 21.4281 32.77 23.5395C32.81 26.724 32.7928 29.9124 32.692 33.0955C32.6393 34.7665 32.1007 36.3587 31.4013 37.8842C30.6085 39.6137 29.8063 41.3395 29.0617 43.0893C28.8429 43.6033 28.7501 44.1903 28.6994 44.7535C28.6387 45.4208 28.6875 46.0975 28.6841 46.7688C28.676 48.3837 27.8152 49.5021 26.2631 49.9226C26.2029 49.9386 26.1475 49.9734 26.0902 50C21.9902 50 17.8903 50 13.7902 50ZM12.2747 23.5955C12.2747 26.9095 12.2747 30.2246 12.274 33.5398C12.274 33.9227 12.2793 34.3084 12.2646 34.6915C12.2485 35.1199 12.0163 35.4163 11.628 35.5698C11.2369 35.7259 10.872 35.6432 10.5576 35.3642C10.4629 35.2788 10.3834 35.1774 10.2999 35.0799C8.57224 33.0592 6.85664 31.0294 5.10569 29.0301C4.81471 28.6979 4.39951 28.4122 3.98527 28.2639C3.37146 28.0436 2.72119 28.1279 2.27015 28.663C1.80701 29.2129 2.11662 29.7307 2.43706 30.2391C3.76437 32.3532 5.08626 34.4699 6.39621 36.5947C7.43254 38.2776 8.72242 39.7258 10.2807 40.9377C10.8994 41.4209 11.5086 41.9146 12.1184 42.4085C12.9166 43.053 13.3076 43.8938 13.3091 44.9189C13.3091 45.5275 13.3057 46.1362 13.3097 46.7448C13.3151 47.5388 13.6927 47.9526 14.4709 47.9539C18.1378 47.962 21.8047 47.962 25.4722 47.9539C26.2283 47.9512 26.6201 47.5468 26.6368 46.7874C26.6508 46.1789 26.6607 45.5702 26.6361 44.9631C26.5933 43.914 26.8357 42.9412 27.2788 41.9934C28.0649 40.313 28.8155 38.6181 29.5816 36.9283C30.2229 35.515 30.6612 34.0375 30.6886 32.4881C30.7421 29.5264 30.7241 26.5623 30.7101 23.6006C30.7087 23.3017 30.5861 22.9668 30.4223 22.7104C30.0621 22.1486 29.3567 21.9403 28.7268 22.1419C28.1036 22.3409 27.6658 22.9239 27.6558 23.642C27.639 24.826 27.6537 26.0111 27.647 27.1962C27.6457 27.4016 27.6403 27.6192 27.5776 27.8114C27.4293 28.2625 26.929 28.5401 26.4691 28.4599C25.966 28.3731 25.6164 27.9607 25.6129 27.3975C25.6041 25.8455 25.6242 24.2918 25.5969 22.7382C25.5915 22.402 25.5001 22.0322 25.3346 21.7427C25.0037 21.162 24.2962 20.9258 23.6638 21.0967C23.0224 21.2689 22.5459 21.8573 22.5392 22.5487C22.5259 24.0381 22.5346 25.5276 22.534 27.0172C22.534 27.1611 22.5392 27.3054 22.5306 27.4483C22.494 28.0355 22.0721 28.4611 21.525 28.4719C20.9558 28.4813 20.5027 28.0514 20.4981 27.4335C20.4834 25.5918 20.4928 23.7513 20.4881 21.9094C20.4873 21.6864 20.4799 21.4596 20.4366 21.2407C20.2992 20.5522 19.7099 20.0529 19.0206 20.0202C18.3378 19.9876 17.6759 20.4373 17.4858 21.0953C17.421 21.3209 17.4182 21.5703 17.4182 21.8081C17.413 23.6018 17.4176 25.3955 17.4136 27.1893C17.4124 27.9966 17.0153 28.4773 16.3719 28.4705C15.7294 28.4625 15.355 27.9874 15.3496 27.168C15.3489 27.0398 15.3496 26.9117 15.3496 26.7835C15.3496 22.1883 15.3496 17.5919 15.3489 12.996C15.3489 12.8046 15.3535 12.6111 15.3363 12.4203C15.2709 11.6929 14.673 11.1129 13.9482 11.0656C12.9614 11.0001 12.2774 11.6948 12.2759 12.7853C12.2721 16.3885 12.2747 19.9919 12.2747 23.5955Z" fill="#295F98"/>
<path fill-rule="evenodd" clip-rule="evenodd" d="M14.8471 0.798498C15.7188 0.99073 16.6116 1.11544 17.4578 1.38634C23.0534 3.17807 26.4672 8.8896 25.4176 14.6521C25.3864 14.8249 25.3549 14.9998 25.3042 15.1672C25.1394 15.7063 24.6616 15.9945 24.1157 15.8944C23.5939 15.7996 23.2456 15.3239 23.3115 14.7628C23.3615 14.3344 23.4703 13.9118 23.5044 13.4834C23.9163 8.22307 20.4461 3.80811 15.2324 2.94729C9.99067 2.08169 4.75884 6.05501 4.16956 11.3321C3.82922 14.3764 4.68208 17.0203 6.75474 19.2731C7.25643 19.8189 7.2886 20.4162 6.84218 20.8446C6.38047 21.2877 5.76714 21.2316 5.24603 20.6552C2.21842 17.3059 1.26618 13.4108 2.58536 9.11973C3.90073 4.84285 6.89362 2.1911 11.2379 1.09059C11.729 0.965884 12.2342 0.894535 12.7334 0.79834C13.4379 0.798499 14.1427 0.798498 14.8471 0.798498Z" fill="#295F98"/>
<path fill-rule="evenodd" clip-rule="evenodd" d="M21.493 12.2662C21.5163 13.0498 21.2436 13.4889 20.6736 13.583C19.9815 13.6972 19.4885 13.2387 19.4577 12.4553C19.3955 10.8763 18.8184 9.51305 17.6398 8.45999C15.8949 6.90191 13.8695 6.49149 11.7067 7.38225C9.55524 8.26903 8.37764 9.95469 8.20468 12.297C8.14527 13.0952 7.88042 13.5095 7.31901 13.5862C6.60774 13.6831 6.09586 13.1785 6.13599 12.3771C6.26739 9.7185 7.40852 7.59168 9.64873 6.15225C12.1218 4.56328 14.741 4.45784 17.3641 5.77671C19.8362 7.01929 21.4137 9.56433 21.493 12.2662Z" fill="#295F98"/>
</svg>
