<svg width="24" height="25" viewBox="0 0 24 25" fill="none" xmlns="http://www.w3.org/2000/svg">
<path d="M19 21H12.5V20H19H19.5V19.5V5.5V5H19H12.5V4H19C19.4162 4 19.7604 4.14248 20.0594 4.44155C20.3585 4.74061 20.5005 5.08424 20.5 5.49939V5.5V19.5C20.5 19.9165 20.3576 20.2607 20.0591 20.5597C19.7611 20.8583 19.4174 21.0005 19.0006 21H19ZM21 5.5V19.5C21 20.05 20.8043 20.521 20.413 20.913C20.0217 21.305 19.5507 21.5007 19 21.5L21 5.5ZM11.175 13H3.5V12H11.175H12.3821L11.5286 11.1464L9.32284 8.94074L10.0095 8.21662L14.2929 12.5L10.0095 16.7834L9.32284 16.0593L11.5286 13.8536L12.3821 13H11.175Z" stroke="#333333"/>
</svg>
