<svg width="24" height="25" viewBox="0 0 24 25" fill="none" xmlns="http://www.w3.org/2000/svg">
<path fill-rule="evenodd" clip-rule="evenodd" d="M13.6671 5.77745C12.682 4.96297 11.3181 4.96297 10.3331 5.77745L5.39582 9.85959C4.9456 10.2318 4.66671 10.8199 4.66671 11.4607V17.8266C4.66671 18.9885 5.5395 19.8333 6.50004 19.8333H8.33337V16.8521C8.33337 14.7849 9.92301 13.0121 12 13.0121C14.0771 13.0121 15.6667 14.7849 15.6667 16.8521V19.8333H17.5C18.4606 19.8333 19.3334 18.9885 19.3334 17.8266V11.4607C19.3334 10.8199 19.0545 10.2318 18.6043 9.8596L13.6671 5.77745ZM14.8353 4.36452L19.7725 8.44667C20.662 9.18213 21.1667 10.2972 21.1667 11.4607V17.8266C21.1667 19.8938 19.5771 21.6666 17.5 21.6666H15.6667C14.6542 21.6666 13.8334 20.8458 13.8334 19.8333V16.8521C13.8334 15.6902 12.9606 14.8454 12 14.8454C11.0395 14.8454 10.1667 15.6902 10.1667 16.8521V19.8333C10.1667 20.8458 9.3459 21.6666 8.33337 21.6666H6.50004C4.42301 21.6666 2.83337 19.8938 2.83337 17.8266V11.4607C2.83337 10.2972 3.33808 9.18213 4.2276 8.44667L9.16482 4.36452C10.8279 2.9895 13.1722 2.9895 14.8353 4.36452Z" fill="#8B8B8B"/>
</svg>
