<svg width="24" height="25" viewBox="0 0 24 25" fill="none" xmlns="http://www.w3.org/2000/svg">
<path fill-rule="evenodd" clip-rule="evenodd" d="M19.7725 8.44679L14.8353 4.36464C13.1722 2.98962 10.8279 2.98962 9.16482 4.36464L4.2276 8.44679C3.33808 9.18225 2.83337 10.2973 2.83337 11.4608V17.8267C2.83337 19.8939 4.42301 21.6667 6.50004 21.6667H8.33337C9.3459 21.6667 10.1667 20.8459 10.1667 19.8334V16.8522C10.1667 15.6903 11.0395 14.8455 12 14.8455C12.9606 14.8455 13.8334 15.6903 13.8334 16.8522V19.8334C13.8334 20.8459 14.6542 21.6667 15.6667 21.6667H17.5C19.5771 21.6667 21.1667 19.8939 21.1667 17.8267V11.4608C21.1667 10.2973 20.662 9.18225 19.7725 8.44679Z" fill="#295F98"/>
</svg>
