<svg width="29" height="29" viewBox="0 0 29 29" fill="none" xmlns="http://www.w3.org/2000/svg">
<g clip-path="url(#clip0_534_3115)">
<path d="M25.8848 6.85352L19.0312 0H4.87109C3.9082 0 3.11523 0.792969 3.11523 1.69922V27.3008C3.11523 27.7539 3.3418 28.207 3.625 28.4902C3.96484 28.8301 4.36133 29 4.87109 29H24.1289C24.6387 29 25.0352 28.8301 25.375 28.4902C25.6582 28.207 25.8848 27.7539 25.8848 27.3008V6.85352Z" fill="#DFDFDF"/>
<path d="M19.2578 0.113289L25.7715 6.62696C25.998 6.79688 25.8281 7.19337 25.5449 7.19337H20.3906C19.4277 7.19337 18.6914 6.4004 18.6914 5.49415V0.339851C18.6914 0.0566482 19.0312 -0.113274 19.2578 0.113289Z" fill="#B5B5B5"/>
<path d="M3.11523 13.5938V23.3359H21.0703C21.5801 23.3359 21.9766 23.166 22.3164 22.8262C22.5996 22.543 22.7695 22.0898 22.7695 21.6367V15.293C22.7695 14.7832 22.5996 14.3867 22.3164 14.0469C21.9766 13.7637 21.5801 13.5938 21.0703 13.5938H3.11523Z" fill="#3C5A82"/>
<path d="M5.66406 11.3848C5.21094 11.3848 5.21094 12.0645 5.66406 12.0645H20.2773C20.7305 12.0645 20.7305 11.3848 20.2773 11.3848H5.66406Z" fill="#B5B5B5"/>
<path d="M5.66406 8.7793C5.21094 8.7793 5.21094 9.45898 5.66406 9.45898H20.2773C20.7305 9.45898 20.7305 8.7793 20.2773 8.7793H5.66406Z" fill="#B5B5B5"/>
<path d="M6.91016 21.0703V15.8027H7.64648V21.0703H6.91016ZM8.83594 21.0703V15.8027H9.91211C10.3086 17.1621 10.9883 19.0312 11.3848 20.334C11.7812 18.9746 12.4609 17.1621 12.9141 15.8027H13.877V21.0703H13.1973V16.6523L11.668 21.0703H11.0449L9.51562 16.5957V21.0703H8.83594ZM17.4453 19.0312V18.4082H19.6543V20.334C17.6719 21.9766 14.7832 21.1836 14.7832 18.4648C14.7832 15.3496 18.2383 15.2363 19.2012 16.4258C19.3711 16.6523 19.4844 16.9355 19.5977 17.2754L18.9746 17.4453C18.748 16.709 18.2949 16.3125 17.4453 16.3125C15.3496 16.3125 15.293 18.6348 15.7461 19.5976C16.3691 20.8437 18.1816 20.7305 18.9746 19.9941V19.0312H17.4453Z" fill="white"/>
</g>
<defs>
<clipPath id="clip0_534_3115">
<rect width="29" height="29" fill="white"/>
</clipPath>
</defs>
</svg>
