<svg width="16" height="16" viewBox="0 0 16 16" fill="none" xmlns="http://www.w3.org/2000/svg">
<g clip-path="url(#clip0_432_2804)">
<path fill-rule="evenodd" clip-rule="evenodd" d="M8.72352 1.19145C8.27174 0.941875 7.72311 0.941875 7.27134 1.19145C6.27199 1.74467 3.94808 3.03071 2.43793 3.86638C1.98545 4.11666 1.69417 4.58257 1.66659 5.09868C1.63867 5.61514 1.87869 6.10898 2.30219 6.40592C3.76568 7.4339 6.0705 9.05222 7.1356 9.80058C7.65277 10.1636 8.34209 10.1636 8.85926 9.80058C9.92436 9.05222 12.2292 7.4339 13.6927 6.40593C14.1162 6.10898 14.3562 5.61515 14.3283 5.09868C14.3007 4.58257 14.0094 4.11666 13.5569 3.86638C12.0468 3.03071 9.72286 1.74467 8.72352 1.19145Z" fill="#295F98"/>
<path fill-rule="evenodd" clip-rule="evenodd" d="M1.96067 11.0877C1.96067 11.0877 5.67949 13.6994 7.1352 14.7217C7.65237 15.0847 8.3417 15.0847 8.85887 14.7217C10.3146 13.6994 14.0334 11.0877 14.0334 11.0877C14.2593 10.929 14.3137 10.6172 14.155 10.3913C13.9966 10.1658 13.6845 10.111 13.459 10.2694C13.459 10.2694 9.74015 12.881 8.28443 13.9033C8.11193 14.0242 7.88215 14.0242 7.70964 13.9033L2.53511 10.2694C2.30958 10.111 1.99744 10.1658 1.83907 10.3913C1.68035 10.6172 1.73478 10.929 1.96067 11.0877Z" fill="#295F98"/>
<path fill-rule="evenodd" clip-rule="evenodd" d="M1.96067 8.59259C1.96067 8.59259 5.67949 11.2043 7.1352 12.2266C7.65237 12.5896 8.3417 12.5896 8.85887 12.2266C10.3146 11.2043 14.0334 8.59259 14.0334 8.59259C14.2593 8.43387 14.3137 8.12208 14.155 7.8962C13.9966 7.67067 13.6845 7.61587 13.459 7.77424C13.459 7.77424 9.74015 10.3859 8.28443 11.4082C8.11193 11.5291 7.88215 11.5291 7.70964 11.4082L2.53511 7.77424C2.30958 7.61587 1.99744 7.67067 1.83907 7.8962C1.68035 8.12209 1.73478 8.43387 1.96067 8.59259Z" fill="#295F98"/>
</g>
<defs>
<clipPath id="clip0_432_2804">
<rect width="16" height="16" fill="white"/>
</clipPath>
</defs>
</svg>
