<svg width="24" height="25" viewBox="0 0 24 25" fill="none" xmlns="http://www.w3.org/2000/svg">
<g clip-path="url(#clip0_168_782)">
<path d="M6.74246 12.1143H2.63588C2.28469 12.1143 2 12.399 2 12.7501V20.9633C2 21.3144 2.28469 21.5991 2.63588 21.5991H6.74246C7.09361 21.5991 7.37834 21.3144 7.37834 20.9633V12.7501C7.37831 12.3989 7.09361 12.1143 6.74246 12.1143ZM6.10658 20.3274H3.27173V13.386H6.10658V20.3274Z" fill="#295F98"/>
<path d="M13.8033 3.90112H9.6968C9.34564 3.90112 9.06091 4.18578 9.06091 4.53701V20.9632C9.06091 21.3144 9.34561 21.5991 9.6968 21.5991H13.8034C14.1545 21.5991 14.4393 21.3144 14.4393 20.9632V4.53697C14.4392 4.18578 14.1545 3.90112 13.8033 3.90112ZM13.1675 20.3273H10.3326V5.17285H13.1675V20.3273Z" fill="#295F98"/>
<path d="M20.8641 8.00745H16.7576C16.4064 8.00745 16.1217 8.29214 16.1217 8.64333V20.963C16.1217 21.3141 16.4064 21.5989 16.7576 21.5989H20.8642C21.2153 21.5989 21.5 21.3142 21.5 20.963V8.64333C21.5 8.29218 21.2153 8.00745 20.8641 8.00745ZM20.2283 20.3271H17.3934V9.27921H20.2283V20.3271Z" fill="#295F98"/>
<rect width="4" height="16" transform="translate(10 4.5)" fill="#295F98"/>
<rect width="4" height="12" transform="translate(17 8.5)" fill="#295F98"/>
<rect width="4" height="8" transform="translate(3 12.5)" fill="#295F98"/>
</g>
<defs>
<clipPath id="clip0_168_782">
<rect width="19.5" height="19.5" fill="white" transform="translate(2 3)"/>
</clipPath>
</defs>
</svg>
