<svg width="24" height="24" viewBox="0 0 24 24" fill="none" xmlns="http://www.w3.org/2000/svg">
<path d="M17.25 4.5H12.75C12.5511 4.5 12.3603 4.57902 12.2197 4.71967C12.079 4.86032 12 5.05109 12 5.25C12 5.44891 12.079 5.63968 12.2197 5.78033C12.3603 5.92098 12.5511 6 12.75 6H17.25C17.4489 6 17.6397 6.07902 17.7803 6.21967C17.921 6.36032 18 6.55109 18 6.75V17.25C18 17.4489 17.921 17.6397 17.7803 17.7803C17.6397 17.921 17.4489 18 17.25 18H12.75C12.5511 18 12.3603 18.079 12.2197 18.2197C12.079 18.3603 12 18.5511 12 18.75C12 18.9489 12.079 19.1397 12.2197 19.2803C12.3603 19.421 12.5511 19.5 12.75 19.5H17.25C17.8467 19.5 18.419 19.2629 18.841 18.841C19.2629 18.419 19.5 17.8467 19.5 17.25V6.75C19.5 6.15326 19.2629 5.58097 18.841 5.15901C18.419 4.73705 17.8467 4.5 17.25 4.5Z" fill="#C03744"/>
<path d="M8.78009 14.4697C8.85172 14.5389 8.90886 14.6216 8.94817 14.7131C8.98747 14.8046 9.00816 14.9031 9.00903 15.0026C9.00989 15.1022 8.99092 15.201 8.95321 15.2932C8.9155 15.3853 8.85981 15.4691 8.78939 15.5395C8.71897 15.6099 8.63523 15.6656 8.54306 15.7033C8.45088 15.741 8.35212 15.76 8.25254 15.7591C8.15295 15.7583 8.05454 15.7376 7.96304 15.6983C7.87153 15.659 7.78878 15.6018 7.71959 15.5302L4.71959 12.5302C4.57899 12.3895 4.5 12.1988 4.5 11.9999C4.5 11.8011 4.57899 11.6103 4.71959 11.4697L7.71959 8.46969C7.78878 8.39806 7.87153 8.34092 7.96304 8.30161C8.05454 8.26231 8.15295 8.24162 8.25254 8.24075C8.35212 8.23989 8.45088 8.25886 8.54306 8.29657C8.63523 8.33428 8.71897 8.38997 8.78939 8.46039C8.85981 8.53081 8.9155 8.61455 8.95321 8.70672C8.99092 8.7989 9.00989 8.89766 9.00903 8.99724C9.00816 9.09682 8.98747 9.19524 8.94817 9.28674C8.90886 9.37825 8.85172 9.461 8.78009 9.53019L7.06034 11.2499H15.7498C15.9488 11.2499 16.1395 11.329 16.2802 11.4696C16.4208 11.6103 16.4998 11.801 16.4998 11.9999C16.4998 12.1989 16.4208 12.3896 16.2802 12.5303C16.1395 12.6709 15.9488 12.7499 15.7498 12.7499H7.06034L8.78009 14.4697Z" fill="#C03744"/>
</svg>
