<svg width="42" height="42" viewBox="0 0 42 42" fill="none" xmlns="http://www.w3.org/2000/svg">
<path d="M21 42C32.598 42 42 32.598 42 21C42 9.40202 32.598 0 21 0C9.40202 0 0 9.40202 0 21C0 32.598 9.40202 42 21 42Z" fill="#FF6C52"/>
<path d="M41.9403 22.593L31.7575 12.4102L10.2422 35.5855L16.0763 41.4196C17.6556 41.799 19.3043 42 20.9998 42C32.0619 42 41.1262 33.4468 41.9403 22.593Z" fill="#F92814"/>
<path d="M10.2422 5.69043V35.5853H21.0706L21.8909 21.3175L21.0706 5.69043H10.2422Z" fill="white"/>
<path d="M31.7577 12.41L27.5969 9.83465L25.038 5.69043H21V35.5853H31.7577V12.41Z" fill="#E9EDF5"/>
<path d="M25.0376 12.41H31.7573L25.0376 5.69043V12.41Z" fill="#CDD2E1"/>
<path d="M12.7954 13.7935H17.5525V16.2544H12.7954V13.7935Z" fill="#BEC3D2"/>
<path d="M12.7954 18.0063V20.4673H21.0707L21.891 19.2368L21.0707 18.0063H12.7954Z" fill="#BEC3D2"/>
<path d="M21 18.0063H29.2046V20.4673H21V18.0063Z" fill="#9196AA"/>
<path d="M12.7954 22.2188V24.6797H21.0707L21.891 23.4492L21.0707 22.2188H12.7954Z" fill="#BEC3D2"/>
<path d="M21 22.2188H29.2046V24.6797H21V22.2188Z" fill="#9196AA"/>
<path d="M12.7954 26.4312H19.7449V28.8921H12.7954V26.4312Z" fill="#BEC3D2"/>
<path d="M29.2498 29.6538C29.6295 28.0901 28.6696 26.5146 27.1058 26.1349C25.542 25.7552 23.9666 26.7151 23.5869 28.2789C23.2072 29.8427 24.1671 31.4181 25.7309 31.7978C27.2946 32.1775 28.8701 31.2176 29.2498 29.6538Z" fill="#7584F2"/>
</svg>
