<svg width="16" height="16" viewBox="0 0 16 16" fill="none" xmlns="http://www.w3.org/2000/svg">
<path d="M12.4048 9.24479C12.2413 9.24485 12.0793 9.21269 11.9282 9.15016C11.7771 9.08763 11.6398 8.99596 11.5242 8.88037C11.4085 8.76478 11.3167 8.62754 11.2541 8.47648C11.1915 8.32543 11.1592 8.16352 11.1592 7.99999C11.1591 7.83647 11.1913 7.67454 11.2538 7.52345C11.3163 7.37235 11.408 7.23505 11.5236 7.11939C11.6392 7.00372 11.7764 6.91196 11.9275 6.84933C12.0785 6.78671 12.2405 6.75445 12.404 6.75439C12.7342 6.75429 13.051 6.88538 13.2846 7.11882C13.5182 7.35227 13.6495 7.66895 13.6496 7.99919C13.6497 8.32944 13.5186 8.64621 13.2852 8.8798C13.0517 9.1134 12.735 9.24469 12.4048 9.24479Z" fill="black"/>
<path d="M8.13152 9.24497C8.819 9.24497 9.37632 8.68765 9.37632 8.00017C9.37632 7.31269 8.819 6.75537 8.13152 6.75537C7.44404 6.75537 6.88672 7.31269 6.88672 8.00017C6.88672 8.68765 7.44404 9.24497 8.13152 9.24497Z" fill="black"/>
<path d="M3.8571 9.24497C4.54459 9.24497 5.1019 8.68765 5.1019 8.00017C5.1019 7.31269 4.54459 6.75537 3.8571 6.75537C3.16962 6.75537 2.6123 7.31269 2.6123 8.00017C2.6123 8.68765 3.16962 9.24497 3.8571 9.24497Z" fill="black"/>
</svg>
