<svg width="24" height="24" viewBox="0 0 24 24" fill="none" xmlns="http://www.w3.org/2000/svg">
<path d="M14.7686 17.538V18.2303C14.7686 18.9647 14.4769 19.6691 13.9575 20.1884C13.4382 20.7078 12.7338 20.9995 11.9994 20.9995C11.265 20.9995 10.5606 20.7078 10.0413 20.1884C9.52193 19.6691 9.23017 18.9647 9.23017 18.2303V17.538M19.4279 16.1287C18.3167 14.7687 17.5322 14.0764 17.5322 10.3272C17.5322 6.89374 15.779 5.67052 14.3359 5.07643C14.1443 4.99768 13.9638 4.81682 13.9054 4.61994C13.6523 3.75845 12.9427 2.99951 11.9994 2.99951C11.0561 2.99951 10.3461 3.75889 10.0956 4.62081C10.0371 4.81985 9.85671 4.99768 9.66503 5.07643C8.22027 5.67139 6.46873 6.89028 6.46873 10.3272C6.46657 14.0764 5.6821 14.7687 4.57094 16.1287C4.11056 16.6921 4.51383 17.538 5.31907 17.538H18.6841C19.485 17.538 19.8857 16.6895 19.4279 16.1287Z" stroke="white" stroke-width="1.3472" stroke-linecap="round" stroke-linejoin="round"/>
</svg>
