<svg width="24" height="24" viewBox="0 0 24 24" fill="none" xmlns="http://www.w3.org/2000/svg">
<path d="M19.3417 16.3895C18.1447 15.3777 17.4583 13.8989 17.4583 12.3322V10.125C17.4583 7.33913 15.3889 5.033 12.7083 4.64667V3.79167C12.7083 3.35388 12.3537 3 11.9167 3C11.4797 3 11.125 3.35388 11.125 3.79167V4.64667C8.44363 5.033 6.375 7.33913 6.375 10.125V12.3322C6.375 13.8989 5.68863 15.3777 4.4845 16.3958C4.17654 16.6594 4 17.0426 4 17.4479C4 18.2119 4.62146 18.8333 5.38542 18.8333H18.4479C19.2119 18.8333 19.8333 18.2119 19.8333 17.4479C19.8333 17.0426 19.6568 16.6594 19.3417 16.3895Z" fill="#295F98" fill-opacity="0.62"/>
<path d="M11.9164 22C13.3501 22 14.5495 20.978 14.825 19.625H9.00781C9.28331 20.978 10.4827 22 11.9164 22Z" fill="#295F98" fill-opacity="0.62"/>
</svg>
