<svg width="10" height="11" viewBox="0 0 10 11" fill="none" xmlns="http://www.w3.org/2000/svg">
<path d="M4.92091 0.279053C2.22199 0.279053 0.0712891 2.49644 0.0712891 5.27905C0.0712891 8.06166 2.22199 10.2791 4.92091 10.2791C7.61983 10.2791 9.77054 8.06166 9.77054 5.27905C9.77054 2.49644 7.61983 0.279053 4.92091 0.279053ZM6.60774 6.53992C6.48123 6.71384 6.18603 6.75731 6.01735 6.5834L4.66789 5.45297C4.58355 5.36601 4.49921 5.23558 4.49921 5.10514V2.67036C4.49921 2.40949 4.71006 2.23557 4.92091 2.23557C5.17394 2.23557 5.34262 2.40949 5.34262 2.67036V4.93123L6.5234 5.93123C6.73425 6.10514 6.73425 6.36601 6.60774 6.53992Z" fill="#FFB62F"/>
</svg>
