<svg width="13" height="13" viewBox="0 0 13 13" fill="none" xmlns="http://www.w3.org/2000/svg">
<g clip-path="url(#clip0_3050_3440)">
<path d="M10.7822 5.25271C10.2622 2.93771 8.24217 1.90271 6.47217 1.90271C6.47217 1.90271 6.47217 1.90271 6.46716 1.90271C4.70217 1.90271 2.68717 2.93771 2.16217 5.24771C1.57217 7.82771 3.15217 10.0127 4.58217 11.3927C5.11217 11.9027 5.79217 12.1577 6.47217 12.1577C7.15216 12.1577 7.83217 11.9027 8.35717 11.3927C9.78717 10.0127 11.3672 7.83271 10.7822 5.25271ZM8.11216 5.66771L6.11216 7.66771C6.03717 7.74271 5.94217 7.77771 5.84717 7.77771C5.75217 7.77771 5.65717 7.74271 5.58217 7.66771L4.83217 6.91771C4.68717 6.77271 4.68717 6.53271 4.83217 6.38771C4.97717 6.24271 5.21716 6.24271 5.36216 6.38771L5.84717 6.87271L7.58217 5.13771C7.72717 4.99271 7.96716 4.99271 8.11216 5.13771C8.25716 5.28271 8.25716 5.52271 8.11216 5.66771Z" fill="#FFB62F"/>
</g>
<defs>
<clipPath id="clip0_3050_3440">
<rect width="12" height="12" fill="white" transform="translate(0.472168 0.90271)"/>
</clipPath>
</defs>
</svg>
