<svg width="24" height="24" viewBox="0 0 24 24" fill="none" xmlns="http://www.w3.org/2000/svg">
<path d="M12.2003 11.8163C14.6473 11.8163 16.6311 9.84273 16.6311 7.40816C16.6311 4.9736 14.6473 3 12.2003 3C9.75326 3 7.76953 4.9736 7.76953 7.40816C7.76953 9.84273 9.75326 11.8163 12.2003 11.8163Z" fill="#295F98" fill-opacity="0.62"/>
<path d="M14.5077 13.6533H9.89231C7.21539 13.6533 5 15.8575 5 18.5207C5 19.1636 5.27692 19.7146 5.83077 19.9901C6.66153 20.4493 8.5077 21.0002 12.2 21.0002C15.8923 21.0002 17.7384 20.4493 18.5692 19.9901C19.0307 19.7146 19.4 19.1636 19.4 18.5207C19.4 15.7656 17.1846 13.6533 14.5077 13.6533Z" fill="#295F98" fill-opacity="0.62"/>
</svg>
