<svg width="24" height="24" viewBox="0 0 24 24" fill="none" xmlns="http://www.w3.org/2000/svg">
<path d="M8.96758 11.2334V15.6667H14.0342V11.2334H8.96758ZM15.9343 4.26665C14.2813 3.90565 12.7993 3.46229 11.5009 3C10.2026 3.46229 8.72058 3.90565 7.06758 4.26665C5.70593 4.56429 4.43293 4.76694 3.26758 4.9V11.2206C3.26758 15.4766 5.74393 19.34 9.60093 21.126L11.5009 22L13.4009 21.126C17.2579 19.34 19.7343 15.4767 19.7343 11.2206V4.9C18.569 4.767 17.296 4.56429 15.9343 4.26665ZM15.3009 15.6666C15.3009 16.3633 14.7309 16.9333 14.0343 16.9333H8.96758C8.27093 16.9333 7.70093 16.3633 7.70093 15.6666V11.2333C7.70093 10.5366 8.27093 9.96665 8.96758 9.96665V9.33329C8.96758 7.93359 10.1013 6.79994 11.5009 6.79994C12.9006 6.79994 14.0343 7.93359 14.0343 9.33329V9.96665C14.731 9.96665 15.3009 10.5366 15.3009 11.2333V15.6666ZM8.96758 11.2334V15.6667H14.0342V11.2334H8.96758ZM12.7676 9.33329C12.7676 8.63665 12.1976 8.06665 11.5009 8.06665C10.8043 8.06665 10.2343 8.63665 10.2343 9.33329V9.96665H12.7676L12.7676 9.33329Z" fill="#295F98" fill-opacity="0.62"/>
</svg>
