<svg width="24" height="25" viewBox="0 0 24 25" fill="none" xmlns="http://www.w3.org/2000/svg">
<mask id="mask0_178_1001" style="mask-type:alpha" maskUnits="userSpaceOnUse" x="0" y="0" width="24" height="25">
<rect y="0.5" width="24" height="24" fill="#D9D9D9"/>
</mask>
<g mask="url(#mask0_178_1001)">
<path fill-rule="evenodd" clip-rule="evenodd" d="M19.186 19.7708C19.186 20.4034 18.9344 21.0108 18.4875 21.4586C18.0397 21.9055 17.4323 22.1571 16.7997 22.1571H6.38638C5.75377 22.1571 5.14633 21.9055 4.69856 21.4586C4.25165 21.0108 4 20.4034 4 19.7708V5.88638C4 5.25377 4.25165 4.64633 4.69856 4.19856C5.14633 3.75165 5.75377 3.5 6.38638 3.5H13.8371C14.2397 3.5 14.6259 3.65967 14.9105 3.94517L18.7409 7.77552C19.0264 8.06015 19.186 8.44631 19.186 8.84896V19.7708ZM8.12193 18.686H12.0269C12.3862 18.686 12.6777 18.3945 12.6777 18.0352C12.6777 17.676 12.3862 17.3844 12.0269 17.3844H8.12193C7.76267 17.3844 7.4711 17.676 7.4711 18.0352C7.4711 18.3945 7.76267 18.686 8.12193 18.686ZM8.12193 15.6488H15.0641C15.4234 15.6488 15.7149 15.3573 15.7149 14.998C15.7149 14.6387 15.4234 14.3472 15.0641 14.3472H8.12193C7.76267 14.3472 7.4711 14.6387 7.4711 14.998C7.4711 15.3573 7.76267 15.6488 8.12193 15.6488ZM13.7625 5.0186V8.05581C13.7625 8.53483 14.1512 8.92359 14.6302 8.92359H17.6674L13.7625 5.0186ZM8.12193 12.6116H15.0641C15.4234 12.6116 15.7149 12.3201 15.7149 11.9608C15.7149 11.6015 15.4234 11.31 15.0641 11.31H8.12193C7.76267 11.31 7.4711 11.6015 7.4711 11.9608C7.4711 12.3201 7.76267 12.6116 8.12193 12.6116Z" fill="#295F98"/>
</g>
</svg>
