<svg width="24" height="25" viewBox="0 0 24 25" fill="none" xmlns="http://www.w3.org/2000/svg">
<mask id="mask0_178_904" style="mask-type:alpha" maskUnits="userSpaceOnUse" x="0" y="0" width="24" height="25">
<rect y="0.5" width="24" height="24" fill="#D9D9D9"/>
</mask>
<g mask="url(#mask0_178_904)">
<path fill-rule="evenodd" clip-rule="evenodd" d="M19.0581 20.1337C19.0581 20.761 18.8086 21.3633 18.3655 21.8073C17.9215 22.2505 17.3191 22.5 16.6919 22.5H6.36628C5.739 22.5 5.13667 22.2505 4.69267 21.8073C4.24953 21.3633 4 20.761 4 20.1337V6.36628C4 5.739 4.24953 5.13667 4.69267 4.69267C5.13667 4.24953 5.739 4 6.36628 4H13.7542C14.1535 4 14.5364 4.15833 14.8186 4.44142L18.6167 8.23951C18.8998 8.52174 19.0581 8.90465 19.0581 9.30391V20.1337ZM17.7674 20.1337V9.30391C17.7674 9.24712 17.7451 9.19205 17.7046 9.1516L13.9065 5.35351C13.8661 5.31307 13.811 5.2907 13.7542 5.2907H6.36628C6.0806 5.2907 5.80784 5.40428 5.60563 5.60563C5.40428 5.80784 5.2907 6.0806 5.2907 6.36628V20.1337C5.2907 20.4194 5.40428 20.6922 5.60563 20.8944C5.80784 21.0957 6.0806 21.2093 6.36628 21.2093H16.6919C16.9775 21.2093 17.2503 21.0957 17.4525 20.8944C17.6539 20.6922 17.7674 20.4194 17.7674 20.1337Z" fill="#8B8B8B"/>
<path fill-rule="evenodd" clip-rule="evenodd" d="M13.4651 5.07565C13.4651 4.71941 13.7542 4.4303 14.1104 4.4303C14.4667 4.4303 14.7558 4.71941 14.7558 5.07565V8.08727C14.7558 8.20602 14.8522 8.30239 14.9709 8.30239H17.9825C18.3388 8.30239 18.6279 8.59151 18.6279 8.94774C18.6279 9.30397 18.3388 9.59309 17.9825 9.59309H14.9709C14.1388 9.59309 13.4651 8.91934 13.4651 8.08727V5.07565Z" fill="#8B8B8B"/>
<path fill-rule="evenodd" clip-rule="evenodd" d="M8.08724 12.6045C7.73101 12.6045 7.44189 12.3154 7.44189 11.9592C7.44189 11.603 7.73101 11.3138 8.08724 11.3138H14.971C15.3272 11.3138 15.6163 11.603 15.6163 11.9592C15.6163 12.3154 15.3272 12.6045 14.971 12.6045H8.08724Z" fill="#8B8B8B"/>
<path fill-rule="evenodd" clip-rule="evenodd" d="M8.08724 15.6164C7.73101 15.6164 7.44189 15.3273 7.44189 14.971C7.44189 14.6148 7.73101 14.3257 8.08724 14.3257H14.971C15.3272 14.3257 15.6163 14.6148 15.6163 14.971C15.6163 15.3273 15.3272 15.6164 14.971 15.6164H8.08724Z" fill="#8B8B8B"/>
<path fill-rule="evenodd" clip-rule="evenodd" d="M8.08724 18.6277C7.73101 18.6277 7.44189 18.3386 7.44189 17.9824C7.44189 17.6262 7.73101 17.337 8.08724 17.337H11.9593C12.3156 17.337 12.6047 17.6262 12.6047 17.9824C12.6047 18.3386 12.3156 18.6277 11.9593 18.6277H8.08724Z" fill="#8B8B8B"/>
</g>
</svg>
