<svg width="24" height="25" viewBox="0 0 24 25" fill="none" xmlns="http://www.w3.org/2000/svg">
<g clip-path="url(#clip0_168_682)">
<path fill-rule="evenodd" clip-rule="evenodd" d="M13.0831 2.28692C12.4055 1.91257 11.5825 1.91257 10.9049 2.28692C9.40585 3.11677 5.91999 5.04581 3.65476 6.29933C2.97604 6.67474 2.53912 7.37361 2.49776 8.14778C2.45587 8.92247 2.81591 9.66323 3.45115 10.1086C5.64638 11.6506 9.10361 14.0781 10.7013 15.2006C11.477 15.7452 12.511 15.7452 13.2868 15.2006C14.8844 14.0781 18.3416 11.6506 20.5369 10.1086C21.1721 9.66323 21.5321 8.92247 21.4903 8.14778C21.4489 7.37361 21.012 6.67474 20.3332 6.29933C18.068 5.04581 14.5822 3.11677 13.0831 2.28692Z" fill="#295F98"/>
<path fill-rule="evenodd" clip-rule="evenodd" d="M2.93948 17.1308C2.93948 17.1308 8.51771 21.0483 10.7013 22.5818C11.477 23.1264 12.511 23.1264 13.2868 22.5818C15.4703 21.0483 21.0486 17.1308 21.0486 17.1308C21.3874 16.8927 21.4691 16.4251 21.231 16.0862C20.9934 15.7479 20.5252 15.6658 20.1869 15.9033C20.1869 15.9033 14.6087 19.8208 12.4251 21.3543C12.1664 21.5356 11.8217 21.5356 11.5629 21.3543L3.80114 15.9033C3.46284 15.6658 2.99463 15.7479 2.75707 16.0862C2.51899 16.4251 2.60065 16.8928 2.93948 17.1308Z" fill="#295F98"/>
<path fill-rule="evenodd" clip-rule="evenodd" d="M2.93948 13.3872C2.93948 13.3872 8.51771 17.3047 10.7013 18.8382C11.477 19.3827 12.511 19.3827 13.2868 18.8382C15.4703 17.3047 21.0486 13.3872 21.0486 13.3872C21.3874 13.1491 21.4691 12.6814 21.231 12.3426C20.9934 12.0043 20.5252 11.9221 20.1869 12.1597C20.1869 12.1597 14.6087 16.0771 12.4251 17.6106C12.1664 17.792 11.8217 17.792 11.5629 17.6106L3.80114 12.1597C3.46284 11.9221 2.99463 12.0043 2.75707 12.3426C2.51899 12.6814 2.60065 13.1491 2.93948 13.3872Z" fill="#295F98"/>
</g>
<defs>
<clipPath id="clip0_168_682">
<rect width="24" height="24" fill="white" transform="translate(0 0.5)"/>
</clipPath>
</defs>
</svg>
