<svg width="24" height="25" viewBox="0 0 24 25" fill="none" xmlns="http://www.w3.org/2000/svg">
<mask id="mask0_168_798" style="mask-type:alpha" maskUnits="userSpaceOnUse" x="0" y="0" width="24" height="25">
<rect y="0.5" width="24" height="24" fill="#D9D9D9"/>
</mask>
<g mask="url(#mask0_168_798)">
<path fill-rule="evenodd" clip-rule="evenodd" d="M12.9664 2.73651C12.3213 2.38017 11.538 2.38017 10.8929 2.73651C9.46605 3.52641 6.14795 5.36262 3.99174 6.55581C3.34569 6.91316 2.92979 7.57839 2.89042 8.3153C2.85055 9.05271 3.19326 9.75782 3.79793 10.1818C5.88751 11.6496 9.17836 13.9602 10.6991 15.0287C11.4375 15.5471 12.4218 15.5471 13.1602 15.0287C14.6809 13.9602 17.9718 11.6496 20.0614 10.1818C20.666 9.75782 21.0088 9.05271 20.9689 8.3153C20.9295 7.57839 20.5136 6.91316 19.8676 6.55581C17.7113 5.36262 14.3932 3.52641 12.9664 2.73651ZM12.2754 3.98571C13.7023 4.77562 17.0199 6.61132 19.1766 7.80501C19.3916 7.92413 19.5304 8.14571 19.544 8.39151C19.5566 8.63732 19.4426 8.87252 19.2412 9.01334L12.34 13.8603C12.0937 14.0329 11.7656 14.0329 11.5193 13.8603L4.61811 9.01334C4.41673 8.87252 4.30266 8.63731 4.31528 8.39151C4.3289 8.14571 4.46771 7.92413 4.68272 7.80501C6.83944 6.61132 10.157 4.77562 11.5839 3.98571C11.7989 3.8666 12.0604 3.8666 12.2754 3.98571Z" fill="#8B8B8B"/>
<path fill-rule="evenodd" clip-rule="evenodd" d="M3.31086 16.8661C3.31086 16.8661 8.62063 20.595 10.6991 22.0547C11.4375 22.5731 12.4218 22.5731 13.1602 22.0547C15.2387 20.595 20.5484 16.8661 20.5484 16.8661C20.871 16.6395 20.9487 16.1943 20.7221 15.8718C20.4959 15.5497 20.0503 15.4715 19.7282 15.6976C19.7282 15.6976 14.4185 19.4266 12.34 20.8863C12.0937 21.0589 11.7656 21.0589 11.5193 20.8863L4.13105 15.6976C3.80903 15.4715 3.36335 15.5497 3.13723 15.8718C2.91061 16.1943 2.98834 16.6395 3.31086 16.8661Z" fill="#8B8B8B"/>
<path fill-rule="evenodd" clip-rule="evenodd" d="M3.31086 13.3028C3.31086 13.3028 8.62063 17.0318 10.6991 18.4915C11.4375 19.0098 12.4218 19.0098 13.1602 18.4915C15.2387 17.0318 20.5484 13.3028 20.5484 13.3028C20.871 13.0762 20.9487 12.631 20.7221 12.3085C20.4959 11.9865 20.0503 11.9083 19.7282 12.1344C19.7282 12.1344 14.4185 15.8633 12.34 17.323C12.0937 17.4956 11.7656 17.4956 11.5193 17.323L4.13105 12.1344C3.80903 11.9083 3.36335 11.9865 3.13723 12.3085C2.91061 12.631 2.98834 13.0762 3.31086 13.3028Z" fill="#8B8B8B"/>
</g>
</svg>
