<svg width="16" height="16" viewBox="0 0 16 16" fill="none" xmlns="http://www.w3.org/2000/svg">
<g clip-path="url(#clip0_168_930)">
<path d="M15.862 12C15.706 12.5247 15.4213 13.0053 15.0233 13.4033L13.4033 15.0233C13.0053 15.4213 12.524 15.706 11.9993 15.862V12.6667C11.9993 12.2987 12.2987 12 12.666 12H15.862ZM16 3.33333V10.6667H12.6667C11.564 10.6667 10.6667 11.564 10.6667 12.6667V16H3.33333C1.49533 16 0 14.5047 0 12.6667V3.33333C0 1.49533 1.49533 0 3.33333 0H12.6667C14.5047 0 16 1.49533 16 3.33333ZM4.66667 11.6667C4.66667 11.1147 4.21867 10.6667 3.66667 10.6667C3.11467 10.6667 2.66667 11.1147 2.66667 11.6667C2.66667 12.2187 3.11467 12.6667 3.66667 12.6667C4.21867 12.6667 4.66667 12.2187 4.66667 11.6667ZM4.66667 8C4.66667 7.448 4.21867 7 3.66667 7C3.11467 7 2.66667 7.448 2.66667 8C2.66667 8.552 3.11467 9 3.66667 9C4.21867 9 4.66667 8.552 4.66667 8ZM4.66667 4.33333C4.66667 3.78133 4.21867 3.33333 3.66667 3.33333C3.11467 3.33333 2.66667 3.78133 2.66667 4.33333C2.66667 4.88533 3.11467 5.33333 3.66667 5.33333C4.21867 5.33333 4.66667 4.88533 4.66667 4.33333Z" fill="white"/>
</g>
<defs>
<clipPath id="clip0_168_930">
<rect width="16" height="16" fill="white"/>
</clipPath>
</defs>
</svg>
